<svg width="175" height="62" viewBox="0 0 175 62" fill="none" xmlns="http://www.w3.org/2000/svg">
<g clip-path="url(#clip0)">
<path d="M11.7359 60.8633C11.2867 60.8633 10.8483 60.8573 10.4026 60.8469C9.47932 60.8344 8.55817 60.7506 7.64673 60.5963C6.79686 60.4438 5.97357 60.1601 5.204 59.7545C4.4415 59.3523 3.74603 58.825 3.14424 58.1926C2.53375 57.5678 2.02548 56.843 1.63958 56.0471C1.24944 55.246 0.979433 54.3873 0.838975 53.501C0.687294 52.5486 0.605228 51.5856 0.593485 50.6203C0.586474 50.3772 0.577837 49.7096 0.573957 49.391C0.572548 49.2753 0.571899 49.1595 0.571899 49.0438V13.9139C0.571899 13.7887 0.572654 13.6639 0.574285 13.5387C0.578448 13.2194 0.587201 12.5818 0.593559 12.3517C0.604802 11.3879 0.686391 10.4264 0.837619 9.47551C0.978336 8.58675 1.24855 7.7256 1.63891 6.92189C2.02338 6.12653 2.52883 5.40123 3.13565 4.7741C3.74178 4.14102 4.43948 3.61095 5.20328 3.2032C5.97108 2.79895 6.79281 2.51724 7.64096 2.3675C8.55539 2.21166 9.47974 2.1274 10.4062 2.11544L11.7366 2.09668H163.26L164.607 2.11619C165.525 2.12756 166.441 2.21106 167.347 2.36599C168.203 2.51761 169.034 2.80129 169.81 3.2077C171.341 4.02943 172.586 5.32948 173.371 6.92564C173.755 7.7238 174.021 8.57792 174.16 9.45901C174.313 10.4177 174.399 11.3868 174.416 12.3585C174.421 12.7936 174.421 13.261 174.421 13.7261C174.432 14.3022 174.432 14.8506 174.432 15.4035V47.5579C174.432 48.1161 174.432 48.6608 174.421 49.2099C174.421 49.7095 174.421 50.1672 174.415 50.6382C174.398 51.5926 174.314 52.5444 174.163 53.4859C174.025 54.3787 173.757 55.244 173.367 56.0517C172.978 56.839 172.473 57.5574 171.869 58.1807C171.267 58.8164 170.57 59.3468 169.806 59.7516C169.032 60.1603 168.203 60.445 167.347 60.5963C166.435 60.7514 165.514 60.8352 164.591 60.8469C164.159 60.8573 163.707 60.8633 163.268 60.8633L161.669 60.8664L11.7359 60.8633Z" fill="black"/>
<path d="M42.8104 31.8235C42.8242 30.7485 43.1098 29.6946 43.6404 28.7596C44.171 27.8247 44.9295 27.0392 45.8453 26.4762C45.2635 25.6453 44.496 24.9615 43.6038 24.4792C42.7115 23.9968 41.7191 23.7291 40.7053 23.6974C38.5426 23.4704 36.4461 24.9915 35.344 24.9915C34.2207 24.9915 32.5239 23.7199 30.6968 23.7575C29.515 23.7957 28.3632 24.1394 27.3537 24.7551C26.3441 25.3707 25.5113 26.2374 24.9363 27.2706C22.4456 31.5829 24.3035 37.9205 26.6894 41.4063C27.8831 43.1131 29.2782 45.0197 31.1037 44.9521C32.89 44.878 33.5572 43.813 35.7134 43.813C37.8497 43.813 38.4756 44.9521 40.3381 44.9091C42.2549 44.878 43.4626 43.1947 44.6145 41.4717C45.4721 40.2555 46.1321 38.9113 46.57 37.489C45.4563 37.0179 44.506 36.2295 43.8374 35.2221C43.1689 34.2146 42.8117 33.0326 42.8104 31.8235Z" fill="white"/>
<path d="M39.2924 21.4046C40.3375 20.15 40.8524 18.5373 40.7277 16.9092C39.131 17.0769 37.6561 17.84 36.5968 19.0465C36.0789 19.6359 35.6822 20.3216 35.4295 21.0644C35.1768 21.8072 35.0729 22.5925 35.1239 23.3755C35.9225 23.3837 36.7126 23.2106 37.4347 22.8692C38.1567 22.5278 38.7919 22.027 39.2924 21.4046Z" fill="white"/>
<path d="M65.3908 40.6294H59.2948L57.8309 44.952H55.2489L61.0229 28.9595H63.7055L69.4794 44.952H66.8534L65.3908 40.6294ZM59.9262 38.6348H64.7582L62.3762 31.6195H62.3095L59.9262 38.6348Z" fill="white"/>
<path d="M81.9493 39.1232C81.9493 42.7465 80.01 45.0745 77.0834 45.0745C76.342 45.1133 75.6047 44.9425 74.9559 44.5817C74.3071 44.2209 73.773 43.6847 73.4148 43.0345H73.3594V48.8097H70.966V33.2926H73.2827V35.2319H73.3267C73.7014 34.5848 74.2446 34.0514 74.8983 33.6884C75.5521 33.3255 76.292 33.1465 77.0394 33.1706C79.9986 33.1706 81.9493 35.5099 81.9493 39.1232ZM79.4893 39.1232C79.4893 36.7625 78.2694 35.2106 76.408 35.2106C74.5794 35.2106 73.3494 36.7952 73.3494 39.1232C73.3494 41.4725 74.5794 43.0459 76.408 43.0459C78.2694 43.0459 79.4893 41.5052 79.4893 39.1232Z" fill="white"/>
<path d="M94.7824 39.1232C94.7824 42.7465 92.8431 45.0745 89.9165 45.0745C89.1752 45.1132 88.4379 44.9425 87.7891 44.5817C87.1402 44.2209 86.6061 43.6847 86.2479 43.0345H86.1925V48.8097H83.7992V33.2926H86.1158V35.2319H86.1598C86.5345 34.5848 87.0777 34.0514 87.7314 33.6884C88.3852 33.3255 89.1251 33.1465 89.8725 33.1706C92.8318 33.1706 94.7824 35.5099 94.7824 39.1232ZM92.3224 39.1232C92.3224 36.7625 91.1025 35.2105 89.2411 35.2105C87.4125 35.2105 86.1825 36.7952 86.1825 39.1232C86.1825 41.4725 87.4125 43.0458 89.2411 43.0458C91.1025 43.0458 92.3224 41.5052 92.3224 39.1232H92.3224Z" fill="white"/>
<path d="M103.265 40.4962C103.442 42.0821 104.983 43.1234 107.088 43.1234C109.105 43.1234 110.557 42.082 110.557 40.6521C110.557 39.4107 109.681 38.6675 107.609 38.1581L105.536 37.6588C102.6 36.9495 101.236 35.5761 101.236 33.3475C101.236 30.5882 103.641 28.6929 107.055 28.6929C110.435 28.6929 112.751 30.5882 112.829 33.3475H110.413C110.269 31.7515 108.949 30.7882 107.021 30.7882C105.093 30.7882 103.774 31.7629 103.774 33.1815C103.774 34.3122 104.617 34.9775 106.678 35.4868L108.44 35.9194C111.721 36.6954 113.085 38.0135 113.085 40.3527C113.085 43.3447 110.701 45.2186 106.911 45.2186C103.364 45.2186 100.97 43.3887 100.815 40.4961L103.265 40.4962Z" fill="white"/>
<path d="M118.249 30.5332V33.2925H120.466V35.1878H118.249V41.6158C118.249 42.6144 118.693 43.0797 119.668 43.0797C119.931 43.0751 120.194 43.0567 120.455 43.0244V44.9083C120.017 44.9902 119.571 45.0273 119.126 45.019C116.765 45.019 115.844 44.1324 115.844 41.8711V35.1878H114.149V33.2925H115.844V30.5332H118.249Z" fill="white"/>
<path d="M121.751 39.1229C121.751 35.4542 123.912 33.1489 127.281 33.1489C130.662 33.1489 132.812 35.4542 132.812 39.1229C132.812 42.8015 130.673 45.0968 127.281 45.0968C123.89 45.0968 121.751 42.8015 121.751 39.1229ZM130.374 39.1229C130.374 36.6063 129.22 35.121 127.281 35.121C125.342 35.121 124.19 36.6176 124.19 39.1229C124.19 41.6495 125.342 43.1235 127.281 43.1235C129.22 43.1235 130.374 41.6495 130.374 39.1229H130.374Z" fill="white"/>
<path d="M134.785 33.2925H137.068V35.2771H137.123C137.278 34.6573 137.641 34.1095 138.151 33.7259C138.662 33.3422 139.289 33.1461 139.928 33.1705C140.204 33.1695 140.479 33.1995 140.748 33.2598V35.4984C140.4 35.392 140.036 35.3432 139.672 35.3538C139.325 35.3397 138.978 35.401 138.656 35.5335C138.335 35.666 138.045 35.8666 137.808 36.1214C137.571 36.3763 137.392 36.6794 137.284 37.0099C137.175 37.3405 137.139 37.6907 137.178 38.0364V44.9523H134.785L134.785 33.2925Z" fill="white"/>
<path d="M151.782 41.5275C151.46 43.6442 149.399 45.0968 146.762 45.0968C143.37 45.0968 141.264 42.8242 141.264 39.1782C141.264 35.5209 143.381 33.1489 146.661 33.1489C149.887 33.1489 151.916 35.3649 151.916 38.9003V39.7203H143.68V39.8649C143.642 40.294 143.696 40.7263 143.838 41.133C143.98 41.5398 144.207 41.9117 144.503 42.2241C144.8 42.5364 145.16 42.7821 145.559 42.9448C145.958 43.1074 146.387 43.1834 146.817 43.1675C147.383 43.2205 147.95 43.0895 148.435 42.794C148.921 42.4986 149.297 42.0544 149.51 41.5275L151.782 41.5275ZM143.692 38.0476H149.521C149.543 37.6617 149.484 37.2756 149.349 36.9134C149.214 36.5513 149.006 36.2209 148.738 35.943C148.469 35.6652 148.146 35.4458 147.789 35.2987C147.431 35.1516 147.047 35.08 146.661 35.0883C146.271 35.0859 145.885 35.1608 145.524 35.3086C145.164 35.4564 144.836 35.6741 144.56 35.9492C144.284 36.2243 144.065 36.5514 143.916 36.9116C143.767 37.2717 143.691 37.6578 143.692 38.0476V38.0476Z" fill="white"/>
<path d="M59.6264 16.9223C60.1282 16.8863 60.6317 16.9621 61.1006 17.1442C61.5696 17.3264 61.9922 17.6103 62.3381 17.9756C62.684 18.3409 62.9445 18.7783 63.1009 19.2565C63.2572 19.7346 63.3055 20.2415 63.2422 20.7406C63.2422 23.1956 61.9154 24.6067 59.6264 24.6067H56.8508V16.9223H59.6264ZM58.0443 23.52H59.4931C59.8517 23.5414 60.2105 23.4826 60.5434 23.3479C60.8764 23.2132 61.1751 23.0059 61.4179 22.7412C61.6606 22.4764 61.8413 22.1609 61.9467 21.8175C62.0522 21.4741 62.0797 21.1116 62.0273 20.7562C62.0759 20.4023 62.0456 20.042 61.9385 19.7011C61.8315 19.3603 61.6504 19.0473 61.4082 18.7847C61.166 18.5221 60.8687 18.3163 60.5376 18.182C60.2065 18.0478 59.8498 17.9884 59.4931 18.0082H58.0443V23.52Z" fill="white"/>
<path d="M64.5901 21.7052C64.5537 21.3241 64.5973 20.9396 64.7181 20.5763C64.839 20.2131 65.0344 19.8791 65.2919 19.5958C65.5494 19.3125 65.8633 19.0861 66.2134 18.9312C66.5635 18.7763 66.9421 18.6963 67.325 18.6963C67.7078 18.6963 68.0864 18.7763 68.4365 18.9312C68.7866 19.0861 69.1005 19.3125 69.358 19.5958C69.6155 19.8791 69.8109 20.2131 69.9318 20.5763C70.0526 20.9396 70.0962 21.3241 70.0598 21.7052C70.0969 22.0867 70.0538 22.4717 69.9333 22.8356C69.8128 23.1994 69.6174 23.5341 69.3599 23.8179C69.1023 24.1018 68.7882 24.3286 68.4378 24.4838C68.0873 24.6391 67.7082 24.7193 67.325 24.7193C66.9417 24.7193 66.5626 24.6391 66.2121 24.4838C65.8617 24.3286 65.5476 24.1018 65.29 23.8179C65.0325 23.5341 64.8371 23.1994 64.7166 22.8356C64.5961 22.4717 64.553 22.0867 64.5901 21.7052ZM68.8826 21.7052C68.8826 20.4482 68.3179 19.7131 67.3268 19.7131C66.332 19.7131 65.7724 20.4482 65.7724 21.7052C65.7724 22.9723 66.3321 23.7018 67.3268 23.7018C68.3179 23.7018 68.8826 22.9673 68.8826 21.7052H68.8826Z" fill="white"/>
<path d="M77.3311 24.6063H76.1438L74.9453 20.3352H74.8547L73.6612 24.6063H72.4853L70.8868 18.8071H72.0476L73.0864 23.2322H73.172L74.3642 18.8071H75.4622L76.6544 23.2322H76.745L77.7788 18.8071H78.9233L77.3311 24.6063Z" fill="white"/>
<path d="M80.2669 18.8076H81.3686V19.7288H81.4541C81.5992 19.398 81.8439 19.1206 82.1541 18.9354C82.4643 18.7502 82.8245 18.6664 83.1846 18.6956C83.4668 18.6744 83.7501 18.717 84.0136 18.8201C84.2771 18.9233 84.514 19.0844 84.7068 19.2915C84.8995 19.4987 85.0432 19.7465 85.1272 20.0168C85.2112 20.287 85.2333 20.5726 85.1918 20.8526V24.6066H84.0474V21.1399C84.0474 20.208 83.6424 19.7446 82.796 19.7446C82.6044 19.7356 82.4132 19.7682 82.2354 19.8401C82.0576 19.912 81.8974 20.0215 81.7659 20.1611C81.6344 20.3007 81.5346 20.4671 81.4734 20.6488C81.4122 20.8306 81.391 21.0234 81.4113 21.2141V24.6067H80.2668L80.2669 18.8076Z" fill="white"/>
<path d="M87.0164 16.5439H88.1609V24.6069H87.0164V16.5439Z" fill="white"/>
<path d="M89.7519 21.7053C89.7154 21.3242 89.7591 20.9397 89.8799 20.5764C90.0008 20.2131 90.1963 19.8791 90.4538 19.5958C90.7113 19.3125 91.0252 19.0861 91.3753 18.9312C91.7255 18.7763 92.1041 18.6963 92.4869 18.6963C92.8698 18.6963 93.2484 18.7763 93.5986 18.9312C93.9487 19.0861 94.2626 19.3125 94.5201 19.5958C94.7776 19.8791 94.9731 20.2131 95.094 20.5764C95.2148 20.9397 95.2585 21.3242 95.222 21.7053C95.2591 22.0868 95.216 22.4719 95.0954 22.8357C94.9749 23.1996 94.7795 23.5342 94.5219 23.818C94.2644 24.1019 93.9502 24.3287 93.5998 24.4839C93.2493 24.6391 92.8702 24.7193 92.4869 24.7193C92.1036 24.7193 91.7246 24.6391 91.3741 24.4839C91.0236 24.3287 90.7095 24.1019 90.4519 23.818C90.1944 23.5342 89.999 23.1996 89.8784 22.8357C89.7579 22.4719 89.7148 22.0868 89.7519 21.7053ZM94.0442 21.7053C94.0442 20.4483 93.4795 19.7132 92.4885 19.7132C91.4937 19.7132 90.9341 20.4483 90.9341 21.7053C90.9341 22.9724 91.4937 23.7019 92.4885 23.7019C93.4795 23.7019 94.0442 22.9674 94.0442 21.7053H94.0442Z" fill="white"/>
<path d="M96.4264 22.9673C96.4264 21.9235 97.2036 21.3217 98.5833 21.2361L100.154 21.1456V20.645C100.154 20.0326 99.7491 19.6867 98.9669 19.6867C98.328 19.6867 97.8853 19.9213 97.7582 20.3313H96.6502C96.7672 19.3352 97.7042 18.6963 99.0197 18.6963C100.474 18.6963 101.294 19.4201 101.294 20.645V24.6073H100.192V23.7924H100.101C99.9175 24.0847 99.6594 24.323 99.3534 24.483C99.0473 24.643 98.7043 24.7188 98.3594 24.7029C98.116 24.7282 97.8699 24.7022 97.6371 24.6266C97.4043 24.5511 97.1899 24.4275 97.0078 24.264C96.8257 24.1005 96.6799 23.9006 96.5797 23.6773C96.4796 23.4539 96.4273 23.2121 96.4264 22.9673ZM100.154 22.4718V21.987L98.738 22.0775C97.9393 22.131 97.5771 22.4026 97.5771 22.9139C97.5771 23.4358 98.0299 23.7395 98.6525 23.7395C98.8349 23.758 99.0192 23.7396 99.1943 23.6854C99.3695 23.6312 99.5319 23.5423 99.672 23.424C99.8121 23.3057 99.927 23.1605 100.01 22.9969C100.093 22.8333 100.142 22.6547 100.154 22.4718Z" fill="white"/>
<path d="M102.798 21.7048C102.798 19.8724 103.74 18.7116 105.205 18.7116C105.568 18.6949 105.927 18.7817 106.242 18.9618C106.557 19.142 106.814 19.4081 106.984 19.729H107.069V16.5439H108.214V24.6069H107.117V23.6907H107.026C106.844 24.0094 106.578 24.2722 106.257 24.4505C105.936 24.6289 105.572 24.716 105.205 24.7025C103.73 24.7025 102.798 23.5417 102.798 21.7048ZM103.98 21.7048C103.98 22.9348 104.56 23.675 105.53 23.675C106.494 23.675 107.091 22.9242 107.091 21.7099C107.091 20.5012 106.488 19.7397 105.53 19.7397C104.566 19.7397 103.98 20.4849 103.98 21.7048H103.98Z" fill="white"/>
<path d="M112.949 21.7052C112.913 21.3241 112.956 20.9396 113.077 20.5763C113.198 20.2131 113.393 19.8791 113.651 19.5958C113.908 19.3125 114.222 19.0861 114.572 18.9312C114.922 18.7763 115.301 18.6963 115.684 18.6963C116.067 18.6963 116.445 18.7763 116.796 18.9312C117.146 19.0861 117.459 19.3125 117.717 19.5958C117.974 19.8791 118.17 20.2131 118.291 20.5763C118.412 20.9396 118.455 21.3241 118.419 21.7052C118.456 22.0867 118.413 22.4717 118.292 22.8356C118.172 23.1994 117.976 23.5341 117.719 23.8179C117.461 24.1018 117.147 24.3286 116.797 24.4838C116.446 24.6391 116.067 24.7193 115.684 24.7193C115.301 24.7193 114.922 24.6391 114.571 24.4838C114.221 24.3286 113.907 24.1018 113.649 23.8179C113.391 23.5341 113.196 23.1994 113.076 22.8356C112.955 22.4717 112.912 22.0867 112.949 21.7052ZM117.242 21.7052C117.242 20.4482 116.677 19.7131 115.686 19.7131C114.691 19.7131 114.131 20.4482 114.131 21.7052C114.131 22.9723 114.691 23.7018 115.686 23.7018C116.677 23.7018 117.242 22.9673 117.242 21.7052Z" fill="white"/>
<path d="M119.954 18.8076H121.055V19.7288H121.141C121.286 19.398 121.531 19.1206 121.841 18.9354C122.151 18.7502 122.511 18.6664 122.871 18.6956C123.154 18.6744 123.437 18.717 123.7 18.8201C123.964 18.9233 124.201 19.0844 124.394 19.2915C124.586 19.4987 124.73 19.7465 124.814 20.0168C124.898 20.287 124.92 20.5726 124.879 20.8526V24.6066H123.734V21.1399C123.734 20.208 123.329 19.7446 122.483 19.7446C122.291 19.7356 122.1 19.7682 121.922 19.8401C121.744 19.912 121.584 20.0215 121.453 20.1611C121.321 20.3007 121.221 20.4671 121.16 20.6488C121.099 20.8306 121.078 21.0234 121.098 21.2141V24.6067H119.954V18.8076Z" fill="white"/>
<path d="M131.346 17.3643V18.8345H132.603V19.7985H131.346V22.7804C131.346 23.3879 131.597 23.6539 132.166 23.6539C132.312 23.6534 132.458 23.6446 132.603 23.6275V24.5808C132.397 24.6175 132.189 24.6371 131.98 24.6393C130.707 24.6393 130.2 24.1915 130.2 23.0735V19.7984H129.28V18.8344H130.2V17.3643H131.346Z" fill="white"/>
<path d="M134.165 16.5439H135.3V19.7397H135.39C135.542 19.4057 135.794 19.1268 136.11 18.9409C136.427 18.755 136.793 18.6712 137.159 18.7009C137.439 18.6856 137.72 18.7325 137.98 18.8381C138.241 18.9438 138.475 19.1056 138.666 19.3121C138.856 19.5186 138.999 19.7646 139.084 20.0327C139.169 20.3007 139.193 20.5842 139.156 20.8628V24.6069H138.01V21.1451C138.01 20.2189 137.579 19.7497 136.77 19.7497C136.573 19.7336 136.375 19.7607 136.19 19.829C136.005 19.8973 135.837 20.0053 135.698 20.1453C135.559 20.2853 135.452 20.4541 135.385 20.6397C135.318 20.8253 135.292 21.0234 135.31 21.22V24.6069H134.165L134.165 16.5439Z" fill="white"/>
<path d="M145.829 23.0416C145.673 23.5716 145.336 24.0301 144.877 24.3368C144.418 24.6435 143.865 24.7789 143.316 24.7194C142.934 24.7295 142.554 24.6563 142.203 24.5049C141.852 24.3536 141.539 24.1276 141.284 23.8428C141.029 23.5581 140.839 23.2212 140.727 22.8557C140.616 22.4902 140.585 22.1047 140.637 21.7261C140.586 21.3463 140.618 20.9601 140.729 20.5935C140.84 20.2268 141.029 19.8884 141.283 19.6012C141.536 19.3139 141.849 19.0844 142.199 18.9283C142.548 18.7722 142.928 18.6931 143.311 18.6964C144.925 18.6964 145.898 19.7988 145.898 21.6198V22.0192H141.803V22.0833C141.785 22.2961 141.812 22.5103 141.882 22.7122C141.951 22.9141 142.062 23.0991 142.208 23.2556C142.353 23.412 142.53 23.5363 142.726 23.6205C142.922 23.7047 143.134 23.747 143.347 23.7446C143.621 23.7775 143.899 23.7282 144.144 23.603C144.39 23.4778 144.593 23.2824 144.727 23.0416L145.829 23.0416ZM141.803 21.1727H144.732C144.747 20.9781 144.72 20.7826 144.654 20.5988C144.589 20.415 144.486 20.247 144.351 20.1055C144.217 19.964 144.054 19.8522 143.874 19.7773C143.694 19.7024 143.5 19.666 143.305 19.6705C143.107 19.668 142.91 19.7051 142.727 19.7798C142.544 19.8544 142.377 19.965 142.237 20.105C142.097 20.245 141.987 20.4116 141.912 20.595C141.838 20.7783 141.8 20.9748 141.803 21.1727H141.803Z" fill="white"/>
</g>
<defs>
<clipPath id="clip0">
<rect x="0.57196" y="0.87207" width="173.86" height="61.1277" rx="30.5639" fill="white"/>
</clipPath>
</defs>
</svg>
