<svg width="58" height="58" viewBox="0 0 58 58" fill="none" xmlns="http://www.w3.org/2000/svg">
<g clip-path="url(#clip0)">
<path d="M27.8931 48.3329H5.79889C3.66342 48.3329 1.93237 46.6017 1.93237 44.4664V40.5996H31.6072L27.8931 48.3329Z" fill="#D3DCFB"/>
<path d="M52.2027 17.3999V33.6442V44.4664H5.79889C3.66342 44.4664 1.93237 42.7352 1.93237 40.5998V17.3999L29.0009 7.73315L52.2027 17.3999Z" fill="#EBF5FC"/>
<path d="M8.76061 25.1335H6.70648C6.20601 25.1335 5.80023 24.7277 5.80023 24.2272V22.1731C5.80023 21.6726 6.20601 21.2668 6.70648 21.2668H8.76061C9.26109 21.2668 9.66686 21.6726 9.66686 22.1731V24.2272C9.66686 24.7277 9.26109 25.1335 8.76061 25.1335Z" fill="#3C58A0"/>
<path d="M16.4939 25.1335H14.4398C13.9393 25.1335 13.5335 24.7277 13.5335 24.2272V22.1731C13.5335 21.6726 13.9393 21.2668 14.4398 21.2668H16.4939C16.9944 21.2668 17.4001 21.6726 17.4001 22.1731V24.2272C17.4001 24.7277 16.9944 25.1335 16.4939 25.1335Z" fill="#3C58A0"/>
<path d="M24.2273 25.1335H22.1732C21.6727 25.1335 21.2669 24.7277 21.2669 24.2272V22.1731C21.2669 21.6726 21.6727 21.2668 22.1732 21.2668H24.2273C24.7278 21.2668 25.1335 21.6726 25.1335 22.1731V24.2272C25.1335 24.7277 24.7279 25.1335 24.2273 25.1335Z" fill="#3C58A0"/>
<path d="M31.9606 25.1335H29.9064C29.406 25.1335 29.0002 24.7277 29.0002 24.2272V22.1731C29.0002 21.6726 29.406 21.2668 29.9064 21.2668H31.9606C32.461 21.2668 32.8668 21.6726 32.8668 22.1731V24.2272C32.8668 24.7277 32.461 25.1335 31.9606 25.1335Z" fill="#3C58A0"/>
<path d="M39.6927 25.1335H37.6385C37.1381 25.1335 36.7323 24.7277 36.7323 24.2272V22.1731C36.7323 21.6726 37.1381 21.2668 37.6385 21.2668H39.6927C40.1931 21.2668 40.5989 21.6726 40.5989 22.1731V24.2272C40.5989 24.7277 40.1933 25.1335 39.6927 25.1335Z" fill="#3C58A0"/>
<path d="M47.4259 25.1335H45.3718C44.8713 25.1335 44.4655 24.7277 44.4655 24.2272V22.1731C44.4655 21.6726 44.8713 21.2668 45.3718 21.2668H47.4259C47.9264 21.2668 48.3321 21.6726 48.3321 22.1731V24.2272C48.3321 24.7277 47.9264 25.1335 47.4259 25.1335Z" fill="#3C58A0"/>
<path d="M8.76061 32.8666H6.70648C6.20601 32.8666 5.80023 32.4609 5.80023 31.9604V29.9062C5.80023 29.4058 6.20601 29 6.70648 29H8.76061C9.26109 29 9.66686 29.4058 9.66686 29.9062V31.9604C9.66686 32.461 9.26109 32.8666 8.76061 32.8666Z" fill="#3C58A0"/>
<path d="M16.4939 32.8666H14.4398C13.9393 32.8666 13.5335 32.4609 13.5335 31.9604V29.9062C13.5335 29.4058 13.9393 29 14.4398 29H16.4939C16.9944 29 17.4001 29.4058 17.4001 29.9062V31.9604C17.4001 32.461 16.9944 32.8666 16.4939 32.8666Z" fill="#3C58A0"/>
<path d="M24.2273 32.8666H22.1732C21.6727 32.8666 21.2669 32.4609 21.2669 31.9604V29.9062C21.2669 29.4058 21.6727 29 22.1732 29H24.2273C24.7278 29 25.1335 29.4058 25.1335 29.9062V31.9604C25.1335 32.461 24.7279 32.8666 24.2273 32.8666Z" fill="#3C58A0"/>
<path d="M32.8668 32.8666V29.9666C32.8668 29.4327 32.4341 29 31.9002 29H29.9668C29.4329 29 29.0002 29.4327 29.0002 29.9666V31.9C29.0002 32.4339 29.433 32.8666 29.9668 32.8666H32.8668Z" fill="#3C58A0"/>
<path d="M8.76061 40.6H6.70648C6.20601 40.6 5.80023 40.1943 5.80023 39.6938V37.6396C5.80023 37.1392 6.20601 36.7334 6.70648 36.7334H8.76061C9.26109 36.7334 9.66686 37.1392 9.66686 37.6396V39.6938C9.66686 40.1943 9.26109 40.6 8.76061 40.6Z" fill="#3C58A0"/>
<path d="M16.4939 40.6H14.4398C13.9393 40.6 13.5335 40.1943 13.5335 39.6938V37.6396C13.5335 37.1392 13.9393 36.7334 14.4398 36.7334H16.4939C16.9944 36.7334 17.4001 37.1392 17.4001 37.6396V39.6938C17.4001 40.1943 16.9944 40.6 16.4939 40.6Z" fill="#3C58A0"/>
<path d="M24.2273 40.6H22.1732C21.6727 40.6 21.2669 40.1943 21.2669 39.6938V37.6396C21.2669 37.1392 21.6727 36.7334 22.1732 36.7334H24.2273C24.7278 36.7334 25.1335 37.1392 25.1335 37.6396V39.6938C25.1335 40.1943 24.7279 40.6 24.2273 40.6Z" fill="#3C58A0"/>
<path d="M47.3987 21.2664H45.3993C45.2783 21.2664 45.1631 21.2901 45.0569 21.3319C45.403 21.4686 45.6482 21.8052 45.6482 22.1999V24.1993C45.6482 24.594 45.4029 24.9307 45.0569 25.0673C45.1631 25.1092 45.2783 25.133 45.3993 25.133H47.3987C47.9143 25.133 48.3324 24.715 48.3324 24.1994V22.2C48.3322 21.6844 47.9142 21.2664 47.3987 21.2664Z" fill="#6100FF"/>
<path d="M39.6654 21.2664H37.666C37.545 21.2664 37.4298 21.2901 37.3237 21.3319C37.6697 21.4686 37.9149 21.8052 37.9149 22.1999V24.1993C37.9149 24.594 37.6696 24.9307 37.3237 25.0673C37.4298 25.1092 37.545 25.133 37.666 25.133H39.6654C40.1811 25.133 40.599 24.715 40.599 24.1994V22.2C40.599 21.6844 40.1811 21.2664 39.6654 21.2664Z" fill="#6100FF"/>
<path d="M31.9333 21.2664H29.9339C29.8129 21.2664 29.6977 21.2901 29.5916 21.3319C29.9376 21.4686 30.1829 21.8052 30.1829 22.1999V24.1993C30.1829 24.594 29.9376 24.9307 29.5916 25.0673C29.6977 25.1092 29.8129 25.133 29.9339 25.133H31.9333C32.449 25.133 32.867 24.715 32.867 24.1994V22.2C32.8669 21.6844 32.4488 21.2664 31.9333 21.2664Z" fill="#6100FF"/>
<path d="M24.1999 21.2664H22.2005C22.0795 21.2664 21.9643 21.2901 21.8582 21.3319C22.2042 21.4686 22.4495 21.8052 22.4495 22.1999V24.1993C22.4495 24.594 22.2042 24.9307 21.8582 25.0673C21.9643 25.1092 22.0795 25.133 22.2005 25.133H24.1999C24.7156 25.133 25.1336 24.715 25.1336 24.1994V22.2C25.1335 21.6844 24.7156 21.2664 24.1999 21.2664Z" fill="#6100FF"/>
<path d="M16.4666 21.2664H14.4672C14.3462 21.2664 14.231 21.2901 14.1248 21.3319C14.4709 21.4686 14.716 21.8052 14.716 22.1999V24.1993C14.716 24.594 14.4708 24.9307 14.1248 25.0673C14.231 25.1092 14.3462 25.133 14.4672 25.133H16.4666C16.9822 25.133 17.4002 24.715 17.4002 24.1994V22.2C17.4002 21.6844 16.9822 21.2664 16.4666 21.2664Z" fill="#6100FF"/>
<path d="M8.73341 21.2664H6.734C6.61301 21.2664 6.49781 21.2901 6.39166 21.3319C6.73774 21.4686 6.98299 21.8052 6.98299 22.1999V24.1993C6.98299 24.594 6.73774 24.9307 6.39166 25.0673C6.49781 25.1092 6.61301 25.133 6.734 25.133H8.73341C9.24907 25.133 9.66707 24.715 9.66707 24.1994V22.2C9.66696 21.6844 9.24895 21.2664 8.73341 21.2664Z" fill="#6100FF"/>
<path d="M8.73341 29H6.734C6.61301 29 6.49781 29.0238 6.39166 29.0656C6.73774 29.2022 6.98299 29.5389 6.98299 29.9336V31.9331C6.98299 32.3277 6.73774 32.6644 6.39166 32.801C6.49781 32.843 6.61301 32.8667 6.734 32.8667H8.73341C9.24907 32.8667 9.66707 32.4487 9.66707 31.9332V29.9337C9.66696 29.418 9.24895 29 8.73341 29Z" fill="#6100FF"/>
<path d="M8.73341 36.7336H6.734C6.61301 36.7336 6.49781 36.7574 6.39166 36.7992C6.73774 36.9359 6.98299 37.2725 6.98299 37.6672V39.6667C6.98299 40.0614 6.73774 40.3981 6.39166 40.5347C6.49781 40.5766 6.61301 40.6004 6.734 40.6004H8.73341C9.24907 40.6004 9.66707 40.1824 9.66707 39.6668V37.6673C9.66696 37.1515 9.24895 36.7336 8.73341 36.7336Z" fill="#6100FF"/>
<path d="M16.4666 29H14.4672C14.3462 29 14.231 29.0238 14.1248 29.0656C14.4709 29.2022 14.716 29.5389 14.716 29.9336V31.9331C14.716 32.3277 14.4708 32.6644 14.1248 32.801C14.231 32.843 14.3462 32.8667 14.4672 32.8667H16.4666C16.9822 32.8667 17.4002 32.4487 17.4002 31.9332V29.9337C17.4002 29.418 16.9822 29 16.4666 29Z" fill="#6100FF"/>
<path d="M16.4666 36.7336H14.4672C14.3462 36.7336 14.231 36.7574 14.1248 36.7992C14.4709 36.9359 14.716 37.2725 14.716 37.6672V39.6667C14.716 40.0614 14.4708 40.3981 14.1248 40.5347C14.231 40.5766 14.3462 40.6004 14.4672 40.6004H16.4666C16.9822 40.6004 17.4002 40.1824 17.4002 39.6668V37.6673C17.4002 37.1515 16.9822 36.7336 16.4666 36.7336Z" fill="#6100FF"/>
<path d="M24.1999 29H22.2005C22.0795 29 21.9643 29.0238 21.8582 29.0656C22.2042 29.2022 22.4495 29.5389 22.4495 29.9336V31.9331C22.4495 32.3277 22.2042 32.6644 21.8582 32.801C21.9643 32.843 22.0795 32.8667 22.2005 32.8667H24.1999C24.7156 32.8667 25.1336 32.4487 25.1336 31.9332V29.9337C25.1335 29.418 24.7156 29 24.1999 29Z" fill="#6100FF"/>
<path d="M32.8669 32.8666V29.9336C32.8669 29.4179 32.4489 29 31.9332 29H29.9338C29.8128 29 29.6976 29.0238 29.5915 29.0656C29.9376 29.2022 30.1828 29.5389 30.1828 29.9336V31.9331C30.1828 32.3277 29.9376 32.6644 29.5915 32.801C29.6976 32.843 29.8128 32.8667 29.9338 32.8667H32.8669V32.8666Z" fill="#6100FF"/>
<path d="M24.1999 36.7336H22.2005C22.0795 36.7336 21.9643 36.7574 21.8582 36.7992C22.2042 36.9359 22.4495 37.2725 22.4495 37.6672V39.6667C22.4495 40.0614 22.2042 40.3981 21.8582 40.5347C21.9643 40.5766 22.0795 40.6004 22.2005 40.6004H24.1999C24.7156 40.6004 25.1336 40.1824 25.1336 39.6668V37.6673C25.1335 37.1515 24.7156 36.7336 24.1999 36.7336Z" fill="#6100FF"/>
<path d="M49.5167 16.2812V33.6447V44.467H52.2027V33.6447V17.4004L49.5167 16.2812Z" fill="#D3DCFB"/>
<path d="M52.2027 17.4V7.73321C52.2027 5.59775 50.4716 3.8667 48.3362 3.8667H5.79889C3.66342 3.8667 1.93237 5.59775 1.93237 7.73321V17.4H52.2027Z" fill="#FF41F7"/>
<path d="M14.1159 8.60833H11.5991C11.1156 8.60833 10.7239 8.21649 10.7239 7.73312C10.7239 7.24975 11.1157 6.85791 11.5991 6.85791H14.1159C14.5993 6.85791 14.9911 7.24975 14.9911 7.73312C14.9911 8.21649 14.5992 8.60833 14.1159 8.60833Z" fill="#E300E8"/>
<path d="M20.299 8.60833H17.7822C17.2987 8.60833 16.907 8.21649 16.907 7.73312C16.907 7.24975 17.2988 6.85791 17.7822 6.85791H20.299C20.7824 6.85791 21.1742 7.24975 21.1742 7.73312C21.1742 8.21649 20.7824 8.60833 20.299 8.60833Z" fill="#E300E8"/>
<path d="M36.3505 8.60833H33.8336C33.3501 8.60833 32.9584 8.21649 32.9584 7.73312C32.9584 7.24975 33.3502 6.85791 33.8336 6.85791H36.3505C36.8339 6.85791 37.2257 7.24975 37.2257 7.73312C37.2257 8.21649 36.8339 8.60833 36.3505 8.60833Z" fill="#E300E8"/>
<path d="M42.5337 8.60833H40.0168C39.5333 8.60833 39.1416 8.21649 39.1416 7.73312C39.1416 7.24975 39.5334 6.85791 40.0168 6.85791H42.5337C43.0172 6.85791 43.4089 7.24975 43.4089 7.73312C43.4089 8.21649 43.0171 8.60833 42.5337 8.60833Z" fill="#E300E8"/>
<path d="M18.3657 7.25C18.3657 8.58468 17.2838 9.66663 15.9491 9.66663C14.6144 9.66663 13.5325 8.58468 13.5325 7.25V2.41663C13.5324 1.08195 14.6143 0 15.949 0C17.2837 0 18.3656 1.08195 18.3656 2.41663V7.25H18.3657Z" fill="#EBF5FC"/>
<path d="M40.6003 7.25C40.6003 8.58468 39.5183 9.66663 38.1836 9.66663C36.849 9.66663 35.7669 8.58468 35.7669 7.25V2.41663C35.7669 1.08195 36.8489 0 38.1835 0C39.5182 0 40.6002 1.08195 40.6002 2.41663V7.25H40.6003Z" fill="#EBF5FC"/>
<path d="M38.1834 0C37.6873 0 37.2264 0.149984 36.8427 0.406453C37.4912 0.839867 37.9186 1.57812 37.9186 2.41674V7.25C37.9186 8.08851 37.4912 8.82688 36.8427 9.26029C37.2263 9.51664 37.6873 9.66674 38.1834 9.66674C39.5181 9.66674 40.6001 8.58479 40.6001 7.25011V2.41663C40.6002 1.08195 39.5182 0 38.1834 0V0Z" fill="#D3DCFB"/>
<path d="M15.9489 0C15.4527 0 14.9919 0.149984 14.6081 0.406453C15.2566 0.839867 15.684 1.57812 15.684 2.41674V7.25C15.684 8.08851 15.2566 8.82688 14.6081 9.26029C14.9918 9.51664 15.4527 9.66674 15.9489 9.66674C17.2836 9.66674 18.3655 8.58479 18.3655 7.25011V2.41663C18.3656 1.08195 17.2837 0 15.9489 0V0Z" fill="#D3DCFB"/>
<path d="M48.3362 3.86694H45.6511C47.7865 3.86694 49.5176 5.59799 49.5176 7.73346V17.4003H52.2026V7.73357C52.2027 5.59811 50.4715 3.86694 48.3362 3.86694Z" fill="#E300E8"/>
<path d="M1.93225 12.6582H52.2027V14.4087H1.93225V12.6582Z" fill="#E300E8"/>
<path d="M41.5675 58C49.5756 58 56.0675 51.5081 56.0675 43.5C56.0675 35.4919 49.5756 29 41.5675 29C33.5594 29 27.0675 35.4919 27.0675 43.5C27.0675 51.5081 33.5594 58 41.5675 58Z" fill="#4C00C8"/>
<path d="M41.5675 54.1337C47.4401 54.1337 52.2008 49.373 52.2008 43.5003C52.2008 37.6277 47.4401 32.8669 41.5675 32.8669C35.6948 32.8669 30.9341 37.6277 30.9341 43.5003C30.9341 49.373 35.6948 54.1337 41.5675 54.1337Z" fill="#EBF5FC"/>
<path d="M41.5676 42.4415C41.0841 42.4415 40.6924 42.0496 40.6924 41.5663V36.7329C40.6924 36.2495 41.0842 35.8577 41.5676 35.8577C42.0511 35.8577 42.4428 36.2495 42.4428 36.7329V41.5663C42.4428 42.0496 42.051 42.4415 41.5676 42.4415Z" fill="#3C58A0"/>
<path d="M46.4008 44.3749H43.5007C43.0172 44.3749 42.6255 43.9831 42.6255 43.4997C42.6255 43.0164 43.0173 42.6245 43.5007 42.6245H46.4008C46.8843 42.6245 47.276 43.0164 47.276 43.4997C47.276 43.9831 46.8842 44.3749 46.4008 44.3749Z" fill="#3C58A0"/>
<path d="M41.5676 29C41.115 29 40.6675 29.0219 40.2255 29.0624C47.6043 29.7397 53.3834 35.9445 53.3834 43.5C53.3834 51.0555 47.6042 57.2603 40.2254 57.9376C40.6674 57.9781 41.1149 58 41.5674 58C49.5755 58 56.0674 51.5081 56.0674 43.5C56.0674 35.4919 49.5756 29 41.5676 29Z" fill="#6100FF"/>
<path d="M41.5676 32.8669C41.1134 32.8669 40.6658 32.8956 40.2265 32.9509C45.466 33.6103 49.5187 38.082 49.5187 43.5003C49.5187 48.9187 45.466 53.3903 40.2265 54.0498C40.6658 54.105 41.1134 54.1337 41.5676 54.1337C47.4402 54.1337 52.201 49.3729 52.201 43.5003C52.201 37.6277 47.4402 32.8669 41.5676 32.8669Z" fill="#D3DCFB"/>
<path d="M41.5676 45.4331C42.6354 45.4331 43.501 44.5675 43.501 43.4998C43.501 42.432 42.6354 41.5664 41.5676 41.5664C40.4999 41.5664 39.6343 42.432 39.6343 43.4998C39.6343 44.5675 40.4999 45.4331 41.5676 45.4331Z" fill="#FFDD40"/>
</g>
<defs>
<clipPath id="clip0">
<rect width="58" height="58" fill="white"/>
</clipPath>
</defs>
</svg>
