<svg width="86" height="86" viewBox="0 0 86 86" fill="none" xmlns="http://www.w3.org/2000/svg">
<path d="M43 86C66.7482 86 86 66.7482 86 43C86 19.2518 66.7482 0 43 0C19.2518 0 0 19.2518 0 43C0 66.7482 19.2518 86 43 86Z" fill="#FFD93B"/>
<path d="M85.9999 43C85.9999 66.7575 66.744 86 42.9999 86C29.4818 86 17.4149 79.765 9.52708 69.996C16.9043 75.9622 26.2971 79.5231 36.523 79.5231C60.2671 79.5231 79.523 60.2806 79.523 36.5232C79.523 26.2972 75.9621 16.9044 69.9958 9.52722C79.7515 17.415 85.9999 29.4819 85.9999 43Z" fill="#F4C534"/>
<path d="M26.0605 12.2496C26.0605 12.2496 17.3235 11.0214 8.15102 21.6397C8.15102 21.6397 14.0823 2.61757 26.0605 12.2496Z" fill="#3E4347"/>
<path d="M59.9393 12.2496C59.9393 12.2496 68.6763 11.0214 77.8488 21.6397C77.8488 21.6397 71.9174 2.61757 59.9393 12.2496Z" fill="#3E4347"/>
<path d="M25.4104 51.5595C34.1453 51.5595 41.2263 44.4785 41.2263 35.7436C41.2263 27.0087 34.1453 19.9277 25.4104 19.9277C16.6755 19.9277 9.59442 27.0087 9.59442 35.7436C9.59442 44.4785 16.6755 51.5595 25.4104 51.5595Z" fill="#F4C534"/>
<path d="M25.4104 48.6894C32.5601 48.6894 38.3561 42.8934 38.3561 35.7437C38.3561 28.594 32.5601 22.798 25.4104 22.798C18.2607 22.798 12.4647 28.594 12.4647 35.7437C12.4647 42.8934 18.2607 48.6894 25.4104 48.6894Z" fill="white"/>
<path d="M17.1059 31.4949C17.1059 35.1015 20.0379 38.0013 23.6446 38.0013C27.2512 38.0013 30.1833 35.0988 30.1833 31.4949C30.1833 27.8882 27.2512 24.9562 23.6446 24.9562C20.0379 24.9562 17.1059 27.8882 17.1059 31.4949Z" fill="#3E4347"/>
<path d="M22.6316 27.5275C22.1404 27.0364 21.082 27.2984 20.2676 28.1128C19.4532 28.9273 19.1911 29.9857 19.6823 30.4769C20.1735 30.968 21.2319 30.706 22.0463 29.8916C22.8607 29.0771 23.1228 28.0187 22.6316 27.5275Z" fill="white"/>
<path d="M60.5895 51.5461C69.3244 51.5461 76.4055 44.465 76.4055 35.7301C76.4055 26.9952 69.3244 19.9142 60.5895 19.9142C51.8546 19.9142 44.7736 26.9952 44.7736 35.7301C44.7736 44.465 51.8546 51.5461 60.5895 51.5461Z" fill="#F4C534"/>
<path d="M60.5896 48.6761C67.7393 48.6761 73.5353 42.8801 73.5353 35.7304C73.5353 28.5807 67.7393 22.7847 60.5896 22.7847C53.4398 22.7847 47.6439 28.5807 47.6439 35.7304C47.6439 42.8801 53.4398 48.6761 60.5896 48.6761Z" fill="white"/>
<path d="M67.201 39.9765C67.201 36.3698 64.269 33.47 60.6623 33.47C57.0557 33.47 54.1237 36.3725 54.1237 39.9765C54.1237 43.5804 57.0557 46.5152 60.6623 46.5152C64.269 46.5152 67.201 43.5831 67.201 39.9765Z" fill="#3E4347"/>
<path d="M64.6204 40.9994C64.1292 40.5082 63.0708 40.7703 62.2564 41.5847C61.4419 42.3991 61.1799 43.4575 61.6711 43.9487C62.1622 44.4399 63.2207 44.1778 64.0351 43.3634C64.8495 42.549 65.1116 41.4906 64.6204 40.9994Z" fill="white"/>
<path d="M18.799 67.776C20.347 64.7068 24.7465 61.3099 27.2539 63.8012C28.5063 64.8708 29.2023 66.4322 30.2478 66.7789C31.3308 67.1256 32.121 66.4457 33.0938 64.8573C35.26 61.8689 37.7271 61.8554 39.7051 63.4357C40.6269 64.2715 41.0838 65.118 41.6052 65.7388C43.4138 68.171 44.2685 65.3922 46.2841 63.4195C48.1788 61.8151 50.6943 61.8984 52.8926 64.8681C53.8897 66.4591 54.6126 67.1175 55.736 66.7708C56.7841 66.4242 57.4775 64.86 58.7353 63.7931C61.5141 61.3797 65.6448 64.6988 67.1982 67.776C65.4594 65.7765 61.5813 62.7853 59.7968 64.7525C58.8723 65.5319 58.66 67.1632 56.5772 68.3484C55.6151 68.8187 54.2525 68.851 52.9948 68.1657C51.9466 67.5233 51.4307 66.6687 50.9093 66.0157C49.6999 64.3333 48.9071 64.4865 48.0901 65.0777C46.8243 66.1957 46.9076 67.2304 45.1688 68.3565C43.7498 69.3912 41.1375 69.289 39.4632 67.1122C38.8209 66.2817 38.3667 65.5077 37.8883 65.0831C37.6814 64.8869 37.3723 64.7579 37.3508 64.7364C36.6252 64.6208 36.1441 64.5456 35.0691 66.0022C33.5023 67.9802 32.0726 69.4718 29.4173 68.3538C27.3238 67.174 27.1142 65.54 26.1897 64.7552C24.4347 62.7638 20.5298 65.7765 18.799 67.776Z" fill="#3E4347"/>
</svg>
