<svg width="895" height="98" viewBox="0 0 895 98" fill="none" xmlns="http://www.w3.org/2000/svg">
<path d="M8.05114 37L10.642 29.0398H23.2386L25.8295 37H33.7386L21.7045 2.09091H12.1932L0.142046 37H8.05114ZM12.517 23.2784L16.8125 10.0682H17.0852L21.3807 23.2784H12.517ZM49.6095 10.8182H44.6834V4.54545H37.422V10.8182H33.8424V16.2727H37.422V29.9091C37.3879 35.0398 40.8822 37.5795 46.1493 37.358C48.0243 37.2898 49.3538 36.9148 50.0868 36.6761L48.9447 31.2727C48.5868 31.3409 47.8197 31.5114 47.1379 31.5114C45.689 31.5114 44.6834 30.9659 44.6834 28.9545V16.2727H49.6095V10.8182ZM96.7049 19.5455C96.7049 8.125 89.614 1.61364 80.3583 1.61364C71.0515 1.61364 64.0117 8.125 64.0117 19.5455C64.0117 30.9148 71.0515 37.4773 80.3583 37.4773C82.5401 37.4773 84.6026 37.1193 86.4776 36.4034L89.2901 39.8636H96.1765L91.1822 33.5909C94.5913 30.5398 96.7049 25.767 96.7049 19.5455ZM77.8015 24.8636L82.2674 30.7614C81.6708 30.8807 81.0231 30.9489 80.3583 30.9489C74.989 30.9489 71.4947 26.9432 71.4947 19.5455C71.4947 12.1477 74.989 8.14205 80.3583 8.14205C85.7106 8.14205 89.2219 12.1477 89.2219 19.5455C89.2219 23.3466 88.2844 26.2614 86.6651 28.1875L84.0742 24.8636H77.8015ZM106.721 37H114.391L118.891 20.5341H119.215L123.715 37H131.402L138.51 10.8182H131.181L127.192 28.3068H126.971L122.675 10.8182H115.465L111.238 28.4091H110.999L106.942 10.8182H99.5956L106.721 37ZM141.904 37H149.165V28.6818L151.126 26.4489L158.268 37H166.773L156.563 22.1534L166.279 10.8182H157.944L149.557 20.7557H149.165V2.09091H141.904V37ZM177.254 32.2273H171.254L171.168 34.1364C170.964 38.7727 169.634 43.5284 169.14 45.5227H173.844C174.663 43.4602 176.606 38.6193 177.066 34.1023L177.254 32.2273ZM197.566 37H205.237L209.737 20.5341H210.061L214.561 37H222.248L229.356 10.8182H222.026L218.038 28.3068H217.816L213.521 10.8182H206.311L202.083 28.4091H201.845L197.788 10.8182H190.441L197.566 37ZM244.025 37.5114C250.502 37.5114 254.866 34.358 255.889 29.5L249.173 29.0568C248.44 31.0511 246.565 32.0909 244.144 32.0909C240.514 32.0909 238.213 29.6875 238.213 25.7841V25.767H256.042V23.7727C256.042 14.875 250.656 10.4773 243.735 10.4773C236.031 10.4773 231.037 15.9489 231.037 24.0284C231.037 32.3295 235.963 37.5114 244.025 37.5114ZM238.213 21.267C238.366 18.2841 240.633 15.8977 243.855 15.8977C247.008 15.8977 249.19 18.1477 249.207 21.267H238.213ZM271.067 37H278.226V32.8068H278.55C279.555 34.9886 281.754 37.4261 285.981 37.4261C291.947 37.4261 296.601 32.7045 296.601 23.9432C296.601 14.9432 291.743 10.4773 285.998 10.4773C281.618 10.4773 279.521 13.0852 278.55 15.2159H278.328V2.09091H271.067V37ZM278.175 23.9091C278.175 19.2386 280.152 16.2557 283.68 16.2557C287.277 16.2557 289.186 19.375 289.186 23.9091C289.186 28.4773 287.243 31.6477 283.68 31.6477C280.186 31.6477 278.175 28.5795 278.175 23.9091ZM300.966 37H308.227V22.1875C308.227 18.9659 310.579 16.75 313.784 16.75C314.79 16.75 316.17 16.9205 316.852 17.142V10.6989C316.204 10.5455 315.301 10.4432 314.568 10.4432C311.636 10.4432 309.233 12.1477 308.278 15.3864H308.006V10.8182H300.966V37ZM320.126 37H327.388V10.8182H320.126V37ZM323.774 7.44318C325.939 7.44318 327.712 5.78977 327.712 3.76136C327.712 1.75 325.939 0.0965891 323.774 0.0965891C321.626 0.0965891 319.854 1.75 319.854 3.76136C319.854 5.78977 321.626 7.44318 323.774 7.44318ZM339.986 21.8636C340.003 18.4886 342.014 16.5114 344.946 16.5114C347.861 16.5114 349.617 18.4205 349.6 21.625V37H356.861V20.3295C356.861 14.2273 353.281 10.4773 347.827 10.4773C343.941 10.4773 341.128 12.3864 339.952 15.4375H339.645V10.8182H332.725V37H339.986V21.8636ZM373.899 47.3636C381.382 47.3636 386.701 43.9545 386.701 37.2557V10.8182H379.49V15.2159H379.218C378.246 13.0852 376.115 10.4773 371.735 10.4773C365.99 10.4773 361.132 14.9432 361.132 23.858C361.132 32.5682 365.854 36.625 371.752 36.625C375.928 36.625 378.263 34.5284 379.218 32.3636H379.524V37.1534C379.524 40.75 377.223 42.1477 374.07 42.1477C370.865 42.1477 369.246 40.75 368.649 39.1648L361.934 40.0682C362.803 44.1932 366.843 47.3636 373.899 47.3636ZM374.053 31.1705C370.49 31.1705 368.547 28.3409 368.547 23.8239C368.547 19.375 370.456 16.2557 374.053 16.2557C377.581 16.2557 379.559 19.2386 379.559 23.8239C379.559 28.4432 377.547 31.1705 374.053 31.1705ZM407.111 46.8182C412.515 46.8182 415.378 44.0568 416.861 39.8295L427.037 10.8523L419.35 10.8182L413.878 30.0455H413.606L408.185 10.8182H400.549L409.941 37.75L409.515 38.858C408.56 41.3125 406.736 41.4318 404.179 40.6477L402.543 46.0682C403.583 46.5114 405.27 46.8182 407.111 46.8182ZM441.212 37.5114C449.155 37.5114 454.099 32.0739 454.099 24.0114C454.099 15.8977 449.155 10.4773 441.212 10.4773C433.269 10.4773 428.326 15.8977 428.326 24.0114C428.326 32.0739 433.269 37.5114 441.212 37.5114ZM441.246 31.8864C437.582 31.8864 435.707 28.5284 435.707 23.9602C435.707 19.392 437.582 16.017 441.246 16.017C444.843 16.017 446.718 19.392 446.718 23.9602C446.718 28.5284 444.843 31.8864 441.246 31.8864ZM475.13 25.8523C475.147 29.3636 472.744 31.2045 470.136 31.2045C467.391 31.2045 465.619 29.2784 465.602 26.1932V10.8182H458.34V27.4886C458.357 33.608 461.937 37.3409 467.204 37.3409C471.141 37.3409 473.971 35.3125 475.147 32.2443H475.42V37H482.391V10.8182H475.13V25.8523ZM505.815 37.4943C509.684 37.4943 512.19 35.8068 513.468 33.3693H513.673V37H520.559V19.3409C520.559 13.1023 515.275 10.4773 509.446 10.4773C503.173 10.4773 499.048 13.4773 498.042 18.25L504.758 18.7955C505.252 17.0568 506.804 15.7784 509.411 15.7784C511.883 15.7784 513.298 17.0227 513.298 19.1705V19.2727C513.298 20.9602 511.508 21.1818 506.957 21.625C501.775 22.1023 497.122 23.8409 497.122 29.6875C497.122 34.8693 500.821 37.4943 505.815 37.4943ZM507.894 32.483C505.661 32.483 504.059 31.4432 504.059 29.4489C504.059 27.4034 505.747 26.3977 508.304 26.0398C509.889 25.8182 512.48 25.4432 513.349 24.8636V27.642C513.349 30.3864 511.082 32.483 507.894 32.483ZM537.542 37.5114C544.514 37.5114 548.895 33.4205 549.235 27.4034H542.383C541.957 30.1989 540.116 31.767 537.628 31.767C534.235 31.767 532.037 28.9205 532.037 23.9091C532.037 18.9659 534.253 16.1364 537.628 16.1364C540.287 16.1364 541.991 17.892 542.383 20.5H549.235C548.929 14.4489 544.343 10.4773 537.508 10.4773C529.565 10.4773 524.656 15.983 524.656 24.0114C524.656 31.9716 529.48 37.5114 537.542 37.5114ZM565.234 37.5114C572.206 37.5114 576.586 33.4205 576.927 27.4034H570.075C569.649 30.1989 567.808 31.767 565.319 31.767C561.927 31.767 559.728 28.9205 559.728 23.9091C559.728 18.9659 561.944 16.1364 565.319 16.1364C567.978 16.1364 569.683 17.892 570.075 20.5H576.927C576.621 14.4489 572.035 10.4773 565.2 10.4773C557.257 10.4773 552.348 15.983 552.348 24.0114C552.348 31.9716 557.172 37.5114 565.234 37.5114ZM593.028 37.5114C599.506 37.5114 603.869 34.358 604.892 29.5L598.176 29.0568C597.443 31.0511 595.568 32.0909 593.148 32.0909C589.517 32.0909 587.216 29.6875 587.216 25.7841V25.767H605.045V23.7727C605.045 14.875 599.659 10.4773 592.739 10.4773C585.034 10.4773 580.04 15.9489 580.04 24.0284C580.04 32.3295 584.966 37.5114 593.028 37.5114ZM587.216 21.267C587.369 18.2841 589.636 15.8977 592.858 15.8977C596.011 15.8977 598.193 18.1477 598.21 21.267H587.216ZM631.088 18.2841C630.44 13.4602 626.554 10.4773 619.94 10.4773C613.241 10.4773 608.827 13.5795 608.844 18.625C608.827 22.5455 611.298 25.0852 616.412 26.108L620.946 27.0114C623.23 27.4716 624.27 28.3068 624.304 29.6193C624.27 31.1705 622.582 32.2784 620.043 32.2784C617.452 32.2784 615.73 31.1705 615.287 29.0398L608.145 29.4148C608.827 34.4261 613.088 37.5114 620.026 37.5114C626.81 37.5114 631.668 34.0511 631.685 28.8864C631.668 25.1023 629.196 22.8352 624.116 21.7955L619.378 20.8409C616.94 20.3125 616.037 19.4773 616.054 18.2159C616.037 16.6477 617.81 15.625 620.06 15.625C622.582 15.625 624.082 17.0057 624.44 18.6932L631.088 18.2841ZM657.561 18.2841C656.913 13.4602 653.027 10.4773 646.413 10.4773C639.715 10.4773 635.3 13.5795 635.317 18.625C635.3 22.5455 637.771 25.0852 642.885 26.108L647.419 27.0114C649.703 27.4716 650.743 28.3068 650.777 29.6193C650.743 31.1705 649.056 32.2784 646.516 32.2784C643.925 32.2784 642.203 31.1705 641.76 29.0398L634.618 29.4148C635.3 34.4261 639.561 37.5114 646.499 37.5114C653.283 37.5114 658.141 34.0511 658.158 28.8864C658.141 25.1023 655.669 22.8352 650.59 21.7955L645.851 20.8409C643.413 20.3125 642.51 19.4773 642.527 18.2159C642.51 16.6477 644.283 15.625 646.533 15.625C649.056 15.625 650.556 17.0057 650.913 18.6932L657.561 18.2841ZM686.806 10.8182H681.88V4.54545H674.618V10.8182H671.039V16.2727H674.618V29.9091C674.584 35.0398 678.078 37.5795 683.346 37.358C685.221 37.2898 686.55 36.9148 687.283 36.6761L686.141 31.2727C685.783 31.3409 685.016 31.5114 684.334 31.5114C682.885 31.5114 681.88 30.9659 681.88 28.9545V16.2727H686.806V10.8182ZM702.604 37.5114C710.547 37.5114 715.491 32.0739 715.491 24.0114C715.491 15.8977 710.547 10.4773 702.604 10.4773C694.661 10.4773 689.718 15.8977 689.718 24.0114C689.718 32.0739 694.661 37.5114 702.604 37.5114ZM702.638 31.8864C698.973 31.8864 697.098 28.5284 697.098 23.9602C697.098 19.392 698.973 16.017 702.638 16.017C706.235 16.017 708.11 19.392 708.11 23.9602C708.11 28.5284 706.235 31.8864 702.638 31.8864ZM737.827 37.4943C741.697 37.4943 744.202 35.8068 745.481 33.3693H745.685V37H752.572V19.3409C752.572 13.1023 747.288 10.4773 741.458 10.4773C735.185 10.4773 731.06 13.4773 730.055 18.25L736.771 18.7955C737.265 17.0568 738.816 15.7784 741.424 15.7784C743.896 15.7784 745.31 17.0227 745.31 19.1705V19.2727C745.31 20.9602 743.521 21.1818 738.969 21.625C733.788 22.1023 729.134 23.8409 729.134 29.6875C729.134 34.8693 732.833 37.4943 737.827 37.4943ZM739.907 32.483C737.674 32.483 736.072 31.4432 736.072 29.4489C736.072 27.4034 737.759 26.3977 740.316 26.0398C741.901 25.8182 744.492 25.4432 745.361 24.8636V27.642C745.361 30.3864 743.094 32.483 739.907 32.483ZM764.987 2.09091H757.725V37H764.987V2.09091ZM777.585 2.09091H770.323V37H777.585V2.09091ZM798.034 46.8182C803.437 46.8182 806.301 44.0568 807.784 39.8295L817.96 10.8523L810.272 10.8182L804.801 30.0455H804.528L799.108 10.8182H791.471L800.863 37.75L800.437 38.858C799.483 41.3125 797.659 41.4318 795.102 40.6477L793.466 46.0682C794.505 46.5114 796.193 46.8182 798.034 46.8182ZM832.135 37.5114C840.078 37.5114 845.021 32.0739 845.021 24.0114C845.021 15.8977 840.078 10.4773 832.135 10.4773C824.192 10.4773 819.248 15.8977 819.248 24.0114C819.248 32.0739 824.192 37.5114 832.135 37.5114ZM832.169 31.8864C828.504 31.8864 826.629 28.5284 826.629 23.9602C826.629 19.392 828.504 16.017 832.169 16.017C835.765 16.017 837.64 19.392 837.64 23.9602C837.64 28.5284 835.765 31.8864 832.169 31.8864ZM866.052 25.8523C866.07 29.3636 863.666 31.2045 861.058 31.2045C858.314 31.2045 856.541 29.2784 856.524 26.1932V10.8182H849.263V27.4886C849.28 33.608 852.859 37.3409 858.126 37.3409C862.064 37.3409 864.893 35.3125 866.07 32.2443H866.342V37H873.314V10.8182H866.052V25.8523ZM878.642 37H885.903V22.1875C885.903 18.9659 888.256 16.75 891.46 16.75C892.466 16.75 893.847 16.9205 894.528 17.142V10.6989C893.881 10.5455 892.977 10.4432 892.244 10.4432C889.313 10.4432 886.909 12.1477 885.955 15.3864H885.682V10.8182H878.642V37ZM13.8295 97.5114C20.3068 97.5114 24.6705 94.358 25.6932 89.5L18.9773 89.0568C18.2443 91.0511 16.3693 92.0909 13.9489 92.0909C10.3182 92.0909 8.01705 89.6875 8.01705 85.7841V85.767H25.8466V83.7727C25.8466 74.875 20.4602 70.4773 13.5398 70.4773C5.83523 70.4773 0.840909 75.9489 0.840909 84.0284C0.840909 92.3295 5.76705 97.5114 13.8295 97.5114ZM8.01705 81.267C8.17045 78.2841 10.4375 75.8977 13.6591 75.8977C16.8125 75.8977 18.9943 78.1477 19.0114 81.267H8.01705ZM51.8893 78.2841C51.2416 73.4602 47.3552 70.4773 40.7416 70.4773C34.0427 70.4773 29.628 73.5795 29.645 78.625C29.628 82.5455 32.0995 85.0852 37.2132 86.108L41.7473 87.0114C44.0314 87.4716 45.0711 88.3068 45.1052 89.6193C45.0711 91.1705 43.3836 92.2784 40.8439 92.2784C38.253 92.2784 36.5314 91.1705 36.0882 89.0398L28.9461 89.4148C29.628 94.4261 33.8893 97.5114 40.8268 97.5114C47.6109 97.5114 52.4689 94.0511 52.4859 88.8864C52.4689 85.1023 49.9973 82.8352 44.9177 81.7955L40.1791 80.8409C37.7416 80.3125 36.8382 79.4773 36.8552 78.2159C36.8382 76.6477 38.6109 75.625 40.8609 75.625C43.3836 75.625 44.8836 77.0057 45.2416 78.6932L51.8893 78.2841ZM78.3624 78.2841C77.7147 73.4602 73.8284 70.4773 67.2147 70.4773C60.5159 70.4773 56.1011 73.5795 56.1181 78.625C56.1011 82.5455 58.5727 85.0852 63.6863 86.108L68.2204 87.0114C70.5045 87.4716 71.5443 88.3068 71.5784 89.6193C71.5443 91.1705 69.8568 92.2784 67.317 92.2784C64.7261 92.2784 63.0045 91.1705 62.5613 89.0398L55.4193 89.4148C56.1011 94.4261 60.3624 97.5114 67.2999 97.5114C74.084 97.5114 78.942 94.0511 78.959 88.8864C78.942 85.1023 76.4704 82.8352 71.3909 81.7955L66.6522 80.8409C64.2147 80.3125 63.3113 79.4773 63.3284 78.2159C63.3113 76.6477 65.084 75.625 67.334 75.625C69.8568 75.625 71.3568 77.0057 71.7147 78.6932L78.3624 78.2841ZM94.9833 97.5114C101.461 97.5114 105.824 94.358 106.847 89.5L100.131 89.0568C99.3981 91.0511 97.5231 92.0909 95.1026 92.0909C91.4719 92.0909 89.1708 89.6875 89.1708 85.7841V85.767H107V83.7727C107 74.875 101.614 70.4773 94.6935 70.4773C86.989 70.4773 81.9947 75.9489 81.9947 84.0284C81.9947 92.3295 86.9208 97.5114 94.9833 97.5114ZM89.1708 81.267C89.3242 78.2841 91.5912 75.8977 94.8128 75.8977C97.9662 75.8977 100.148 78.1477 100.165 81.267H89.1708ZM118.52 81.8636C118.537 78.4886 120.549 76.5114 123.481 76.5114C126.395 76.5114 128.151 78.4205 128.134 81.625V97H135.395V80.3295C135.395 74.2273 131.816 70.4773 126.361 70.4773C122.475 70.4773 119.662 72.3864 118.486 75.4375H118.179V70.8182H111.259V97H118.52V81.8636ZM154.564 70.8182H149.638V64.5455H142.377V70.8182H138.797V76.2727H142.377V89.9091C142.343 95.0398 145.837 97.5795 151.104 97.358C152.979 97.2898 154.309 96.9148 155.042 96.6761L153.9 91.2727C153.542 91.3409 152.775 91.5114 152.093 91.5114C150.644 91.5114 149.638 90.9659 149.638 88.9545V76.2727H154.564V70.8182ZM158.815 97H166.076V70.8182H158.815V97ZM162.462 67.4432C164.627 67.4432 166.4 65.7898 166.4 63.7614C166.4 61.75 164.627 60.0966 162.462 60.0966C160.315 60.0966 158.542 61.75 158.542 63.7614C158.542 65.7898 160.315 67.4432 162.462 67.4432ZM178.879 97.4943C182.748 97.4943 185.254 95.8068 186.532 93.3693H186.737V97H193.623V79.3409C193.623 73.1023 188.339 70.4773 182.509 70.4773C176.237 70.4773 172.112 73.4773 171.106 78.25L177.822 78.7955C178.316 77.0568 179.867 75.7784 182.475 75.7784C184.947 75.7784 186.362 77.0227 186.362 79.1705V79.2727C186.362 80.9602 184.572 81.1818 180.021 81.625C174.839 82.1023 170.185 83.8409 170.185 89.6875C170.185 94.8693 173.884 97.4943 178.879 97.4943ZM180.958 92.483C178.725 92.483 177.123 91.4432 177.123 89.4489C177.123 87.4034 178.81 86.3977 181.367 86.0398C182.952 85.8182 185.543 85.4432 186.413 84.8636V87.642C186.413 90.3864 184.146 92.483 180.958 92.483ZM206.038 62.0909H198.776V97H206.038V62.0909ZM233.159 78.2841C232.511 73.4602 228.625 70.4773 222.011 70.4773C215.312 70.4773 210.897 73.5795 210.914 78.625C210.897 82.5455 213.369 85.0852 218.483 86.108L223.017 87.0114C225.301 87.4716 226.341 88.3068 226.375 89.6193C226.341 91.1705 224.653 92.2784 222.113 92.2784C219.522 92.2784 217.801 91.1705 217.358 89.0398L210.216 89.4148C210.897 94.4261 215.159 97.5114 222.096 97.5114C228.88 97.5114 233.738 94.0511 233.755 88.8864C233.738 85.1023 231.267 82.8352 226.187 81.7955L221.448 80.8409C219.011 80.3125 218.108 79.4773 218.125 78.2159C218.108 76.6477 219.88 75.625 222.13 75.625C224.653 75.625 226.153 77.0057 226.511 78.6932L233.159 78.2841ZM265.267 85.8523C265.284 89.3636 262.881 91.2045 260.273 91.2045C257.528 91.2045 255.756 89.2784 255.738 86.1932V70.8182H248.477V87.4886C248.494 93.608 252.074 97.3409 257.341 97.3409C261.278 97.3409 264.108 95.3125 265.284 92.2443H265.557V97H272.528V70.8182H265.267V85.8523ZM285.118 81.8636C285.135 78.4886 287.146 76.5114 290.078 76.5114C292.993 76.5114 294.749 78.4205 294.731 81.625V97H301.993V80.3295C301.993 74.2273 298.413 70.4773 292.959 70.4773C289.072 70.4773 286.26 72.3864 285.084 75.4375H284.777V70.8182H277.856V97H285.118V81.8636ZM316.884 97.4261C321.111 97.4261 323.31 94.9886 324.315 92.8068H324.622V97H331.781V62.0909H324.537V75.2159H324.315C323.344 73.0852 321.247 70.4773 316.867 70.4773C311.122 70.4773 306.264 74.9432 306.264 83.9432C306.264 92.7045 310.918 97.4261 316.884 97.4261ZM319.185 91.6477C315.622 91.6477 313.679 88.4773 313.679 83.9091C313.679 79.375 315.588 76.2557 319.185 76.2557C322.713 76.2557 324.69 79.2386 324.69 83.9091C324.69 88.5795 322.679 91.6477 319.185 91.6477ZM349.203 97.5114C355.681 97.5114 360.044 94.358 361.067 89.5L354.351 89.0568C353.618 91.0511 351.743 92.0909 349.323 92.0909C345.692 92.0909 343.391 89.6875 343.391 85.7841V85.767H361.22V83.7727C361.22 74.875 355.834 70.4773 348.914 70.4773C341.209 70.4773 336.215 75.9489 336.215 84.0284C336.215 92.3295 341.141 97.5114 349.203 97.5114ZM343.391 81.267C343.544 78.2841 345.811 75.8977 349.033 75.8977C352.186 75.8977 354.368 78.1477 354.385 81.267H343.391ZM365.479 97H372.74V82.1875C372.74 78.9659 375.093 76.75 378.297 76.75C379.303 76.75 380.684 76.9205 381.365 77.142V70.6989C380.718 70.5455 379.814 70.4432 379.081 70.4432C376.149 70.4432 373.746 72.1477 372.791 75.3864H372.519V70.8182H365.479V97ZM407.099 97.5114C415.042 97.5114 419.985 92.0739 419.985 84.0114C419.985 75.8977 415.042 70.4773 407.099 70.4773C399.155 70.4773 394.212 75.8977 394.212 84.0114C394.212 92.0739 399.155 97.5114 407.099 97.5114ZM407.133 91.8864C403.468 91.8864 401.593 88.5284 401.593 83.9602C401.593 79.392 403.468 76.017 407.133 76.017C410.729 76.017 412.604 79.392 412.604 83.9602C412.604 88.5284 410.729 91.8864 407.133 91.8864ZM431.488 81.8636C431.505 78.4886 433.516 76.5114 436.448 76.5114C439.363 76.5114 441.119 78.4205 441.101 81.625V97H448.363V80.3295C448.363 74.2273 444.783 70.4773 439.329 70.4773C435.442 70.4773 432.63 72.3864 431.454 75.4375H431.147V70.8182H424.226V97H431.488V81.8636ZM465.538 97.5114C472.015 97.5114 476.379 94.358 477.401 89.5L470.685 89.0568C469.952 91.0511 468.077 92.0909 465.657 92.0909C462.026 92.0909 459.725 89.6875 459.725 85.7841V85.767H477.555V83.7727C477.555 74.875 472.168 70.4773 465.248 70.4773C457.543 70.4773 452.549 75.9489 452.549 84.0284C452.549 92.3295 457.475 97.5114 465.538 97.5114ZM459.725 81.267C459.879 78.2841 462.146 75.8977 465.367 75.8977C468.521 75.8977 470.702 78.1477 470.719 81.267H459.725ZM509.233 85.8523C509.25 89.3636 506.846 91.2045 504.238 91.2045C501.494 91.2045 499.721 89.2784 499.704 86.1932V70.8182H492.443V87.4886C492.46 93.608 496.039 97.3409 501.306 97.3409C505.244 97.3409 508.073 95.3125 509.25 92.2443H509.522V97H516.494V70.8182H509.233V85.8523ZM521.822 97H529.083V81.2841C529.083 78.3864 530.924 76.4602 533.345 76.4602C535.731 76.4602 537.333 78.0966 537.333 80.6705V97H544.373V81.0114C544.373 78.3011 545.924 76.4602 548.566 76.4602C550.885 76.4602 552.623 77.9091 552.623 80.8239V97H559.868V79.392C559.868 73.7159 556.493 70.4773 551.618 70.4773C547.782 70.4773 544.799 72.4375 543.726 75.4375H543.453C542.618 72.4034 539.941 70.4773 536.345 70.4773C532.816 70.4773 530.14 72.3523 529.049 75.4375H528.743V70.8182H521.822V97ZM565.26 97H572.419V92.8068H572.743C573.748 94.9886 575.947 97.4261 580.175 97.4261C586.14 97.4261 590.794 92.7045 590.794 83.9432C590.794 74.9432 585.936 70.4773 580.192 70.4773C575.811 70.4773 573.714 73.0852 572.743 75.2159H572.521V62.0909H565.26V97ZM572.368 83.9091C572.368 79.2386 574.345 76.2557 577.873 76.2557C581.47 76.2557 583.379 79.375 583.379 83.9091C583.379 88.4773 581.436 91.6477 577.873 91.6477C574.379 91.6477 572.368 88.5795 572.368 83.9091ZM595.159 97H602.42V82.1875C602.42 78.9659 604.773 76.75 607.977 76.75C608.983 76.75 610.364 76.9205 611.045 77.142V70.6989C610.398 70.5455 609.494 70.4432 608.761 70.4432C605.829 70.4432 603.426 72.1477 602.471 75.3864H602.199V70.8182H595.159V97ZM625.033 97.5114C631.51 97.5114 635.874 94.358 636.896 89.5L630.18 89.0568C629.447 91.0511 627.572 92.0909 625.152 92.0909C621.521 92.0909 619.22 89.6875 619.22 85.7841V85.767H637.05V83.7727C637.05 74.875 631.663 70.4773 624.743 70.4773C617.038 70.4773 612.044 75.9489 612.044 84.0284C612.044 92.3295 616.97 97.5114 625.033 97.5114ZM619.22 81.267C619.374 78.2841 621.641 75.8977 624.862 75.8977C628.016 75.8977 630.197 78.1477 630.214 81.267H619.22ZM648.57 62.0909H641.308V97H648.57V62.0909ZM661.168 62.0909H653.906V97H661.168V62.0909ZM673.971 97.4943C677.84 97.4943 680.346 95.8068 681.624 93.3693H681.828V97H688.715V79.3409C688.715 73.1023 683.431 70.4773 677.601 70.4773C671.328 70.4773 667.203 73.4773 666.198 78.25L672.914 78.7955C673.408 77.0568 674.959 75.7784 677.567 75.7784C680.039 75.7784 681.453 77.0227 681.453 79.1705V79.2727C681.453 80.9602 679.664 81.1818 675.113 81.625C669.931 82.1023 665.277 83.8409 665.277 89.6875C665.277 94.8693 668.976 97.4943 673.971 97.4943ZM676.05 92.483C673.817 92.483 672.215 91.4432 672.215 89.4489C672.215 87.4034 673.902 86.3977 676.459 86.0398C678.044 85.8182 680.635 85.4432 681.505 84.8636V87.642C681.505 90.3864 679.238 92.483 676.05 92.483ZM698.113 97.4432C700.295 97.4432 702.187 95.6193 702.204 93.3523C702.187 91.1193 700.295 89.2955 698.113 89.2955C695.863 89.2955 694.005 91.1193 694.022 93.3523C694.005 95.6193 695.863 97.4432 698.113 97.4432Z" fill="url(#paint0_linear)"/>
<defs>
<linearGradient id="paint0_linear" x1="892.246" y1="-22.7787" x2="-196.253" y2="337.909" gradientUnits="userSpaceOnUse">
<stop stop-color="#FC466B"/>
<stop offset="1" stop-color="#3F5EFB"/>
</linearGradient>
</defs>
</svg>
