<svg width="896" height="98" viewBox="0 0 896 98" fill="none" xmlns="http://www.w3.org/2000/svg">
<path d="M8.59862 37L11.1895 29.0398H23.7861L26.377 37H34.2861L22.252 2.09091H12.7407L0.689531 37H8.59862ZM13.0645 23.2784L17.36 10.0682H17.6327L21.9282 23.2784H13.0645ZM50.157 10.8182H45.2308V4.54545H37.9695V10.8182H34.3899V16.2727H37.9695V29.9091C37.9354 35.0398 41.4297 37.5795 46.6968 37.358C48.5718 37.2898 49.9013 36.9148 50.6343 36.6761L49.4922 31.2727C49.1343 31.3409 48.3672 31.5114 47.6854 31.5114C46.2365 31.5114 45.2308 30.9659 45.2308 28.9545V16.2727H50.157V10.8182ZM97.2524 19.5455C97.2524 8.125 90.1615 1.61364 80.9058 1.61364C71.599 1.61364 64.5592 8.125 64.5592 19.5455C64.5592 30.9148 71.599 37.4773 80.9058 37.4773C83.0876 37.4773 85.1501 37.1193 87.0251 36.4034L89.8376 39.8636H96.724L91.7296 33.5909C95.1387 30.5398 97.2524 25.767 97.2524 19.5455ZM78.349 24.8636L82.8149 30.7614C82.2183 30.8807 81.5706 30.9489 80.9058 30.9489C75.5365 30.9489 72.0421 26.9432 72.0421 19.5455C72.0421 12.1477 75.5365 8.14205 80.9058 8.14205C86.2581 8.14205 89.7694 12.1477 89.7694 19.5455C89.7694 23.3466 88.8319 26.2614 87.2126 28.1875L84.6217 24.8636H78.349ZM107.268 37H114.939L119.439 20.5341H119.762L124.262 37H131.95L139.058 10.8182H131.728L127.74 28.3068H127.518L123.223 10.8182H116.012L111.785 28.4091H111.547L107.49 10.8182H100.143L107.268 37ZM142.451 37H149.713V28.6818L151.673 26.4489L158.815 37H167.321L157.111 22.1534L166.826 10.8182H158.491L150.105 20.7557H149.713V2.09091H142.451V37ZM177.801 32.2273H171.801L171.716 34.1364C171.511 38.7727 170.182 43.5284 169.687 45.5227H174.392C175.21 43.4602 177.153 38.6193 177.614 34.1023L177.801 32.2273ZM198.114 37H205.784L210.284 20.5341H210.608L215.108 37H222.796L229.904 10.8182H222.574L218.585 28.3068H218.364L214.068 10.8182H206.858L202.631 28.4091H202.392L198.335 10.8182H190.989L198.114 37ZM244.573 37.5114C251.05 37.5114 255.414 34.358 256.436 29.5L249.72 29.0568C248.987 31.0511 247.112 32.0909 244.692 32.0909C241.061 32.0909 238.76 29.6875 238.76 25.7841V25.767H256.59V23.7727C256.59 14.875 251.203 10.4773 244.283 10.4773C236.578 10.4773 231.584 15.9489 231.584 24.0284C231.584 32.3295 236.51 37.5114 244.573 37.5114ZM238.76 21.267C238.914 18.2841 241.181 15.8977 244.402 15.8977C247.556 15.8977 249.737 18.1477 249.754 21.267H238.76ZM271.614 37H278.773V32.8068H279.097C280.103 34.9886 282.302 37.4261 286.529 37.4261C292.495 37.4261 297.148 32.7045 297.148 23.9432C297.148 14.9432 292.29 10.4773 286.546 10.4773C282.165 10.4773 280.069 13.0852 279.097 15.2159H278.875V2.09091H271.614V37ZM278.722 23.9091C278.722 19.2386 280.699 16.2557 284.228 16.2557C287.824 16.2557 289.733 19.375 289.733 23.9091C289.733 28.4773 287.79 31.6477 284.228 31.6477C280.733 31.6477 278.722 28.5795 278.722 23.9091ZM301.513 37H308.775V22.1875C308.775 18.9659 311.127 16.75 314.332 16.75C315.337 16.75 316.718 16.9205 317.4 17.142V10.6989C316.752 10.5455 315.849 10.4432 315.116 10.4432C312.184 10.4432 309.78 12.1477 308.826 15.3864H308.553V10.8182H301.513V37ZM320.674 37H327.935V10.8182H320.674V37ZM324.322 7.44318C326.486 7.44318 328.259 5.78977 328.259 3.76136C328.259 1.75 326.486 0.0965891 324.322 0.0965891C322.174 0.0965891 320.401 1.75 320.401 3.76136C320.401 5.78977 322.174 7.44318 324.322 7.44318ZM340.533 21.8636C340.55 18.4886 342.562 16.5114 345.494 16.5114C348.408 16.5114 350.164 18.4205 350.147 21.625V37H357.408V20.3295C357.408 14.2273 353.829 10.4773 348.374 10.4773C344.488 10.4773 341.675 12.3864 340.499 15.4375H340.193V10.8182H333.272V37H340.533V21.8636ZM374.447 47.3636C381.93 47.3636 387.248 43.9545 387.248 37.2557V10.8182H380.038V15.2159H379.765C378.793 13.0852 376.663 10.4773 372.282 10.4773C366.538 10.4773 361.68 14.9432 361.68 23.858C361.68 32.5682 366.401 36.625 372.299 36.625C376.475 36.625 378.811 34.5284 379.765 32.3636H380.072V37.1534C380.072 40.75 377.771 42.1477 374.617 42.1477C371.413 42.1477 369.793 40.75 369.197 39.1648L362.481 40.0682C363.35 44.1932 367.39 47.3636 374.447 47.3636ZM374.6 31.1705C371.038 31.1705 369.095 28.3409 369.095 23.8239C369.095 19.375 371.004 16.2557 374.6 16.2557C378.129 16.2557 380.106 19.2386 380.106 23.8239C380.106 28.4432 378.095 31.1705 374.6 31.1705ZM407.659 46.8182C413.062 46.8182 415.926 44.0568 417.409 39.8295L427.585 10.8523L419.897 10.8182L414.426 30.0455H414.153L408.733 10.8182H401.096L410.488 37.75L410.062 38.858C409.108 41.3125 407.284 41.4318 404.727 40.6477L403.091 46.0682C404.13 46.5114 405.818 46.8182 407.659 46.8182ZM441.76 37.5114C449.703 37.5114 454.646 32.0739 454.646 24.0114C454.646 15.8977 449.703 10.4773 441.76 10.4773C433.817 10.4773 428.873 15.8977 428.873 24.0114C428.873 32.0739 433.817 37.5114 441.76 37.5114ZM441.794 31.8864C438.129 31.8864 436.254 28.5284 436.254 23.9602C436.254 19.392 438.129 16.017 441.794 16.017C445.39 16.017 447.265 19.392 447.265 23.9602C447.265 28.5284 445.39 31.8864 441.794 31.8864ZM475.677 25.8523C475.695 29.3636 473.291 31.2045 470.683 31.2045C467.939 31.2045 466.166 29.2784 466.149 26.1932V10.8182H458.888V27.4886C458.905 33.608 462.484 37.3409 467.751 37.3409C471.689 37.3409 474.518 35.3125 475.695 32.2443H475.967V37H482.939V10.8182H475.677V25.8523ZM506.362 37.4943C510.232 37.4943 512.737 35.8068 514.016 33.3693H514.22V37H521.107V19.3409C521.107 13.1023 515.823 10.4773 509.993 10.4773C503.72 10.4773 499.595 13.4773 498.59 18.25L505.306 18.7955C505.8 17.0568 507.351 15.7784 509.959 15.7784C512.431 15.7784 513.845 17.0227 513.845 19.1705V19.2727C513.845 20.9602 512.056 21.1818 507.504 21.625C502.323 22.1023 497.669 23.8409 497.669 29.6875C497.669 34.8693 501.368 37.4943 506.362 37.4943ZM508.442 32.483C506.209 32.483 504.607 31.4432 504.607 29.4489C504.607 27.4034 506.294 26.3977 508.851 26.0398C510.436 25.8182 513.027 25.4432 513.897 24.8636V27.642C513.897 30.3864 511.629 32.483 508.442 32.483ZM538.09 37.5114C545.061 37.5114 549.442 33.4205 549.783 27.4034H542.931C542.505 30.1989 540.664 31.767 538.175 31.767C534.783 31.767 532.584 28.9205 532.584 23.9091C532.584 18.9659 534.8 16.1364 538.175 16.1364C540.834 16.1364 542.539 17.892 542.931 20.5H549.783C549.476 14.4489 544.891 10.4773 538.056 10.4773C530.112 10.4773 525.203 15.983 525.203 24.0114C525.203 31.9716 530.027 37.5114 538.09 37.5114ZM565.782 37.5114C572.753 37.5114 577.134 33.4205 577.475 27.4034H570.623C570.196 30.1989 568.356 31.767 565.867 31.767C562.475 31.767 560.276 28.9205 560.276 23.9091C560.276 18.9659 562.492 16.1364 565.867 16.1364C568.526 16.1364 570.231 17.892 570.623 20.5H577.475C577.168 14.4489 572.583 10.4773 565.748 10.4773C557.804 10.4773 552.895 15.983 552.895 24.0114C552.895 31.9716 557.719 37.5114 565.782 37.5114ZM593.576 37.5114C600.053 37.5114 604.417 34.358 605.439 29.5L598.723 29.0568C597.991 31.0511 596.116 32.0909 593.695 32.0909C590.064 32.0909 587.763 29.6875 587.763 25.7841V25.767H605.593V23.7727C605.593 14.875 600.206 10.4773 593.286 10.4773C585.581 10.4773 580.587 15.9489 580.587 24.0284C580.587 32.3295 585.513 37.5114 593.576 37.5114ZM587.763 21.267C587.917 18.2841 590.184 15.8977 593.405 15.8977C596.559 15.8977 598.741 18.1477 598.758 21.267H587.763ZM631.636 18.2841C630.988 13.4602 627.101 10.4773 620.488 10.4773C613.789 10.4773 609.374 13.5795 609.391 18.625C609.374 22.5455 611.846 25.0852 616.959 26.108L621.494 27.0114C623.778 27.4716 624.817 28.3068 624.851 29.6193C624.817 31.1705 623.13 32.2784 620.59 32.2784C617.999 32.2784 616.278 31.1705 615.834 29.0398L608.692 29.4148C609.374 34.4261 613.636 37.5114 620.573 37.5114C627.357 37.5114 632.215 34.0511 632.232 28.8864C632.215 25.1023 629.744 22.8352 624.664 21.7955L619.925 20.8409C617.488 20.3125 616.584 19.4773 616.601 18.2159C616.584 16.6477 618.357 15.625 620.607 15.625C623.13 15.625 624.63 17.0057 624.988 18.6932L631.636 18.2841ZM658.109 18.2841C657.461 13.4602 653.575 10.4773 646.961 10.4773C640.262 10.4773 635.847 13.5795 635.864 18.625C635.847 22.5455 638.319 25.0852 643.433 26.108L647.967 27.0114C650.251 27.4716 651.291 28.3068 651.325 29.6193C651.291 31.1705 649.603 32.2784 647.063 32.2784C644.472 32.2784 642.751 31.1705 642.308 29.0398L635.166 29.4148C635.847 34.4261 640.109 37.5114 647.046 37.5114C653.83 37.5114 658.688 34.0511 658.705 28.8864C658.688 25.1023 656.217 22.8352 651.137 21.7955L646.398 20.8409C643.961 20.3125 643.058 19.4773 643.075 18.2159C643.058 16.6477 644.83 15.625 647.08 15.625C649.603 15.625 651.103 17.0057 651.461 18.6932L658.109 18.2841ZM687.353 10.8182H682.427V4.54545H675.166V10.8182H671.586V16.2727H675.166V29.9091C675.132 35.0398 678.626 37.5795 683.893 37.358C685.768 37.2898 687.098 36.9148 687.83 36.6761L686.688 31.2727C686.33 31.3409 685.563 31.5114 684.882 31.5114C683.433 31.5114 682.427 30.9659 682.427 28.9545V16.2727H687.353V10.8182ZM703.152 37.5114C711.095 37.5114 716.038 32.0739 716.038 24.0114C716.038 15.8977 711.095 10.4773 703.152 10.4773C695.208 10.4773 690.265 15.8977 690.265 24.0114C690.265 32.0739 695.208 37.5114 703.152 37.5114ZM703.186 31.8864C699.521 31.8864 697.646 28.5284 697.646 23.9602C697.646 19.392 699.521 16.017 703.186 16.017C706.782 16.017 708.657 19.392 708.657 23.9602C708.657 28.5284 706.782 31.8864 703.186 31.8864ZM738.375 37.4943C742.244 37.4943 744.75 35.8068 746.028 33.3693H746.233V37H753.119V19.3409C753.119 13.1023 747.835 10.4773 742.006 10.4773C735.733 10.4773 731.608 13.4773 730.602 18.25L737.318 18.7955C737.812 17.0568 739.364 15.7784 741.971 15.7784C744.443 15.7784 745.858 17.0227 745.858 19.1705V19.2727C745.858 20.9602 744.068 21.1818 739.517 21.625C734.335 22.1023 729.682 23.8409 729.682 29.6875C729.682 34.8693 733.381 37.4943 738.375 37.4943ZM740.454 32.483C738.221 32.483 736.619 31.4432 736.619 29.4489C736.619 27.4034 738.307 26.3977 740.864 26.0398C742.449 25.8182 745.04 25.4432 745.909 24.8636V27.642C745.909 30.3864 743.642 32.483 740.454 32.483ZM765.534 2.09091H758.273V37H765.534V2.09091ZM778.132 2.09091H770.871V37H778.132V2.09091ZM798.581 46.8182C803.985 46.8182 806.848 44.0568 808.331 39.8295L818.507 10.8523L810.82 10.8182L805.348 30.0455H805.076L799.655 10.8182H792.019L801.411 37.75L800.985 38.858C800.03 41.3125 798.206 41.4318 795.649 40.6477L794.013 46.0682C795.053 46.5114 796.74 46.8182 798.581 46.8182ZM832.682 37.5114C840.625 37.5114 845.569 32.0739 845.569 24.0114C845.569 15.8977 840.625 10.4773 832.682 10.4773C824.739 10.4773 819.796 15.8977 819.796 24.0114C819.796 32.0739 824.739 37.5114 832.682 37.5114ZM832.716 31.8864C829.052 31.8864 827.177 28.5284 827.177 23.9602C827.177 19.392 829.052 16.017 832.716 16.017C836.313 16.017 838.188 19.392 838.188 23.9602C838.188 28.5284 836.313 31.8864 832.716 31.8864ZM866.6 25.8523C866.617 29.3636 864.214 31.2045 861.606 31.2045C858.861 31.2045 857.089 29.2784 857.072 26.1932V10.8182H849.81V27.4886C849.827 33.608 853.407 37.3409 858.674 37.3409C862.611 37.3409 865.441 35.3125 866.617 32.2443H866.89V37H873.861V10.8182H866.6V25.8523ZM879.19 37H886.451V22.1875C886.451 18.9659 888.803 16.75 892.008 16.75C893.013 16.75 894.394 16.9205 895.076 17.142V10.6989C894.428 10.5455 893.525 10.4432 892.792 10.4432C889.86 10.4432 887.457 12.1477 886.502 15.3864H886.229V10.8182H879.19V37ZM103.881 97.5114C110.358 97.5114 114.722 94.358 115.745 89.5L109.029 89.0568C108.296 91.0511 106.421 92.0909 104 92.0909C100.37 92.0909 98.0686 89.6875 98.0686 85.7841V85.767H115.898V83.7727C115.898 74.875 110.512 70.4773 103.591 70.4773C95.8868 70.4773 90.8925 75.9489 90.8925 84.0284C90.8925 92.3295 95.8186 97.5114 103.881 97.5114ZM98.0686 81.267C98.222 78.2841 100.489 75.8977 103.711 75.8977C106.864 75.8977 109.046 78.1477 109.063 81.267H98.0686ZM141.941 78.2841C141.293 73.4602 137.407 70.4773 130.793 70.4773C124.094 70.4773 119.68 73.5795 119.697 78.625C119.68 82.5455 122.151 85.0852 127.265 86.108L131.799 87.0114C134.083 87.4716 135.123 88.3068 135.157 89.6193C135.123 91.1705 133.435 92.2784 130.895 92.2784C128.305 92.2784 126.583 91.1705 126.14 89.0398L118.998 89.4148C119.68 94.4261 123.941 97.5114 130.878 97.5114C137.662 97.5114 142.52 94.0511 142.537 88.8864C142.52 85.1023 140.049 82.8352 134.969 81.7955L130.231 80.8409C127.793 80.3125 126.89 79.4773 126.907 78.2159C126.89 76.6477 128.662 75.625 130.912 75.625C133.435 75.625 134.935 77.0057 135.293 78.6932L141.941 78.2841ZM168.414 78.2841C167.766 73.4602 163.88 70.4773 157.266 70.4773C150.567 70.4773 146.153 73.5795 146.17 78.625C146.153 82.5455 148.624 85.0852 153.738 86.108L158.272 87.0114C160.556 87.4716 161.596 88.3068 161.63 89.6193C161.596 91.1705 159.908 92.2784 157.369 92.2784C154.778 92.2784 153.056 91.1705 152.613 89.0398L145.471 89.4148C146.153 94.4261 150.414 97.5114 157.352 97.5114C164.136 97.5114 168.994 94.0511 169.011 88.8864C168.994 85.1023 166.522 82.8352 161.442 81.7955L156.704 80.8409C154.266 80.3125 153.363 79.4773 153.38 78.2159C153.363 76.6477 155.136 75.625 157.386 75.625C159.908 75.625 161.408 77.0057 161.766 78.6932L168.414 78.2841ZM185.035 97.5114C191.512 97.5114 195.876 94.358 196.899 89.5L190.183 89.0568C189.45 91.0511 187.575 92.0909 185.154 92.0909C181.524 92.0909 179.222 89.6875 179.222 85.7841V85.767H197.052V83.7727C197.052 74.875 191.666 70.4773 184.745 70.4773C177.041 70.4773 172.046 75.9489 172.046 84.0284C172.046 92.3295 176.972 97.5114 185.035 97.5114ZM179.222 81.267C179.376 78.2841 181.643 75.8977 184.864 75.8977C188.018 75.8977 190.2 78.1477 190.217 81.267H179.222ZM208.572 81.8636C208.589 78.4886 210.6 76.5114 213.532 76.5114C216.447 76.5114 218.203 78.4205 218.186 81.625V97H225.447V80.3295C225.447 74.2273 221.867 70.4773 216.413 70.4773C212.526 70.4773 209.714 72.3864 208.538 75.4375H208.231V70.8182H201.311V97H208.572V81.8636ZM244.616 70.8182H239.69V64.5455H232.429V70.8182H228.849V76.2727H232.429V89.9091C232.394 95.0398 235.889 97.5795 241.156 97.358C243.031 97.2898 244.36 96.9148 245.093 96.6761L243.951 91.2727C243.593 91.3409 242.826 91.5114 242.144 91.5114C240.696 91.5114 239.69 90.9659 239.69 88.9545V76.2727H244.616V70.8182ZM248.866 97H256.128V70.8182H248.866V97ZM252.514 67.4432C254.679 67.4432 256.451 65.7898 256.451 63.7614C256.451 61.75 254.679 60.0966 252.514 60.0966C250.366 60.0966 248.593 61.75 248.593 63.7614C248.593 65.7898 250.366 67.4432 252.514 67.4432ZM268.93 97.4943C272.8 97.4943 275.305 95.8068 276.584 93.3693H276.788V97H283.675V79.3409C283.675 73.1023 278.39 70.4773 272.561 70.4773C266.288 70.4773 262.163 73.4773 261.157 78.25L267.873 78.7955C268.368 77.0568 269.919 75.7784 272.527 75.7784C274.998 75.7784 276.413 77.0227 276.413 79.1705V79.2727C276.413 80.9602 274.623 81.1818 270.072 81.625C264.89 82.1023 260.237 83.8409 260.237 89.6875C260.237 94.8693 263.936 97.4943 268.93 97.4943ZM271.01 92.483C268.777 92.483 267.175 91.4432 267.175 89.4489C267.175 87.4034 268.862 86.3977 271.419 86.0398C273.004 85.8182 275.595 85.4432 276.464 84.8636V87.642C276.464 90.3864 274.197 92.483 271.01 92.483ZM296.089 62.0909H288.828V97H296.089V62.0909ZM323.21 78.2841C322.563 73.4602 318.676 70.4773 312.063 70.4773C305.364 70.4773 300.949 73.5795 300.966 78.625C300.949 82.5455 303.42 85.0852 308.534 86.108L313.068 87.0114C315.352 87.4716 316.392 88.3068 316.426 89.6193C316.392 91.1705 314.705 92.2784 312.165 92.2784C309.574 92.2784 307.852 91.1705 307.409 89.0398L300.267 89.4148C300.949 94.4261 305.21 97.5114 312.148 97.5114C318.932 97.5114 323.79 94.0511 323.807 88.8864C323.79 85.1023 321.318 82.8352 316.239 81.7955L311.5 80.8409C309.063 80.3125 308.159 79.4773 308.176 78.2159C308.159 76.6477 309.932 75.625 312.182 75.625C314.705 75.625 316.205 77.0057 316.563 78.6932L323.21 78.2841ZM355.318 85.8523C355.335 89.3636 352.932 91.2045 350.324 91.2045C347.58 91.2045 345.807 89.2784 345.79 86.1932V70.8182H338.529V87.4886C338.546 93.608 342.125 97.3409 347.392 97.3409C351.33 97.3409 354.159 95.3125 355.335 92.2443H355.608V97H362.58V70.8182H355.318V85.8523ZM375.169 81.8636C375.186 78.4886 377.198 76.5114 380.13 76.5114C383.044 76.5114 384.8 78.4205 384.783 81.625V97H392.044V80.3295C392.044 74.2273 388.465 70.4773 383.01 70.4773C379.124 70.4773 376.311 72.3864 375.135 75.4375H374.828V70.8182H367.908V97H375.169V81.8636ZM406.935 97.4261C411.162 97.4261 413.361 94.9886 414.367 92.8068H414.674V97H421.833V62.0909H414.589V75.2159H414.367C413.395 73.0852 411.299 70.4773 406.918 70.4773C401.174 70.4773 396.316 74.9432 396.316 83.9432C396.316 92.7045 400.969 97.4261 406.935 97.4261ZM409.236 91.6477C405.674 91.6477 403.731 88.4773 403.731 83.9091C403.731 79.375 405.64 76.2557 409.236 76.2557C412.765 76.2557 414.742 79.2386 414.742 83.9091C414.742 88.5795 412.731 91.6477 409.236 91.6477ZM439.255 97.5114C445.732 97.5114 450.096 94.358 451.119 89.5L444.403 89.0568C443.67 91.0511 441.795 92.0909 439.374 92.0909C435.744 92.0909 433.442 89.6875 433.442 85.7841V85.767H451.272V83.7727C451.272 74.875 445.886 70.4773 438.965 70.4773C431.261 70.4773 426.266 75.9489 426.266 84.0284C426.266 92.3295 431.192 97.5114 439.255 97.5114ZM433.442 81.267C433.596 78.2841 435.863 75.8977 439.084 75.8977C442.238 75.8977 444.42 78.1477 444.437 81.267H433.442ZM455.531 97H462.792V82.1875C462.792 78.9659 465.144 76.75 468.349 76.75C469.354 76.75 470.735 76.9205 471.417 77.142V70.6989C470.769 70.5455 469.866 70.4432 469.133 70.4432C466.201 70.4432 463.798 72.1477 462.843 75.3864H462.57V70.8182H455.531V97ZM497.15 97.5114C505.093 97.5114 510.036 92.0739 510.036 84.0114C510.036 75.8977 505.093 70.4773 497.15 70.4773C489.207 70.4773 484.264 75.8977 484.264 84.0114C484.264 92.0739 489.207 97.5114 497.15 97.5114ZM497.184 91.8864C493.519 91.8864 491.644 88.5284 491.644 83.9602C491.644 79.392 493.519 76.017 497.184 76.017C500.781 76.017 502.656 79.392 502.656 83.9602C502.656 88.5284 500.781 91.8864 497.184 91.8864ZM521.539 81.8636C521.556 78.4886 523.568 76.5114 526.5 76.5114C529.414 76.5114 531.17 78.4205 531.153 81.625V97H538.414V80.3295C538.414 74.2273 534.835 70.4773 529.38 70.4773C525.494 70.4773 522.681 72.3864 521.505 75.4375H521.198V70.8182H514.278V97H521.539V81.8636ZM555.589 97.5114C562.067 97.5114 566.43 94.358 567.453 89.5L560.737 89.0568C560.004 91.0511 558.129 92.0909 555.709 92.0909C552.078 92.0909 549.777 89.6875 549.777 85.7841V85.767H567.606V83.7727C567.606 74.875 562.22 70.4773 555.299 70.4773C547.595 70.4773 542.601 75.9489 542.601 84.0284C542.601 92.3295 547.527 97.5114 555.589 97.5114ZM549.777 81.267C549.93 78.2841 552.197 75.8977 555.419 75.8977C558.572 75.8977 560.754 78.1477 560.771 81.267H549.777ZM599.284 85.8523C599.301 89.3636 596.898 91.2045 594.29 91.2045C591.545 91.2045 589.773 89.2784 589.756 86.1932V70.8182H582.494V87.4886C582.511 93.608 586.091 97.3409 591.358 97.3409C595.295 97.3409 598.125 95.3125 599.301 92.2443H599.574V97H606.545V70.8182H599.284V85.8523ZM611.874 97H619.135V81.2841C619.135 78.3864 620.976 76.4602 623.396 76.4602C625.783 76.4602 627.385 78.0966 627.385 80.6705V97H634.425V81.0114C634.425 78.3011 635.976 76.4602 638.618 76.4602C640.936 76.4602 642.675 77.9091 642.675 80.8239V97H649.919V79.392C649.919 73.7159 646.544 70.4773 641.669 70.4773C637.834 70.4773 634.851 72.4375 633.777 75.4375H633.504C632.669 72.4034 629.993 70.4773 626.396 70.4773C622.868 70.4773 620.192 72.3523 619.101 75.4375H618.794V70.8182H611.874V97ZM655.311 97H662.47V92.8068H662.794C663.8 94.9886 665.999 97.4261 670.226 97.4261C676.192 97.4261 680.845 92.7045 680.845 83.9432C680.845 74.9432 675.987 70.4773 670.243 70.4773C665.862 70.4773 663.766 73.0852 662.794 75.2159H662.573V62.0909H655.311V97ZM662.419 83.9091C662.419 79.2386 664.397 76.2557 667.925 76.2557C671.522 76.2557 673.431 79.375 673.431 83.9091C673.431 88.4773 671.487 91.6477 667.925 91.6477C664.431 91.6477 662.419 88.5795 662.419 83.9091ZM685.211 97H692.472V82.1875C692.472 78.9659 694.824 76.75 698.029 76.75C699.034 76.75 700.415 76.9205 701.097 77.142V70.6989C700.449 70.5455 699.546 70.4432 698.813 70.4432C695.881 70.4432 693.478 72.1477 692.523 75.3864H692.25V70.8182H685.211V97ZM715.084 97.5114C721.562 97.5114 725.925 94.358 726.948 89.5L720.232 89.0568C719.499 91.0511 717.624 92.0909 715.204 92.0909C711.573 92.0909 709.272 89.6875 709.272 85.7841V85.767H727.101V83.7727C727.101 74.875 721.715 70.4773 714.794 70.4773C707.09 70.4773 702.096 75.9489 702.096 84.0284C702.096 92.3295 707.022 97.5114 715.084 97.5114ZM709.272 81.267C709.425 78.2841 711.692 75.8977 714.914 75.8977C718.067 75.8977 720.249 78.1477 720.266 81.267H709.272ZM738.621 62.0909H731.36V97H738.621V62.0909ZM751.219 62.0909H743.958V97H751.219V62.0909ZM764.022 97.4943C767.891 97.4943 770.397 95.8068 771.675 93.3693H771.88V97H778.766V79.3409C778.766 73.1023 773.482 70.4773 767.653 70.4773C761.38 70.4773 757.255 73.4773 756.249 78.25L762.965 78.7955C763.46 77.0568 765.011 75.7784 767.619 75.7784C770.09 75.7784 771.505 77.0227 771.505 79.1705V79.2727C771.505 80.9602 769.715 81.1818 765.164 81.625C759.982 82.1023 755.329 83.8409 755.329 89.6875C755.329 94.8693 759.028 97.4943 764.022 97.4943ZM766.102 92.483C763.869 92.483 762.266 91.4432 762.266 89.4489C762.266 87.4034 763.954 86.3977 766.511 86.0398C768.096 85.8182 770.687 85.4432 771.556 84.8636V87.642C771.556 90.3864 769.289 92.483 766.102 92.483ZM788.164 97.4432C790.346 97.4432 792.238 95.6193 792.255 93.3523C792.238 91.1193 790.346 89.2955 788.164 89.2955C785.914 89.2955 784.056 91.1193 784.073 93.3523C784.056 95.6193 785.914 97.4432 788.164 97.4432Z" fill="url(#paint0_linear)"/>
<defs>
<linearGradient id="paint0_linear" x1="823.246" y1="-22.7787" x2="-265.253" y2="337.909" gradientUnits="userSpaceOnUse">
<stop stop-color="#FC466B"/>
<stop offset="1" stop-color="#3F5EFB"/>
</linearGradient>
</defs>
</svg>
