<svg width="175" height="62" viewBox="0 0 175 62" fill="none" xmlns="http://www.w3.org/2000/svg">
<g clip-path="url(#clip0)">
<path d="M167.645 0.78125H6.66352C3.10721 0.78125 0.224243 4.2073 0.224243 8.43356V54.3474C0.224243 58.5737 3.10721 61.9997 6.66352 61.9997H167.645C171.202 61.9997 174.085 58.5737 174.085 54.3474V8.43356C174.085 4.2073 171.202 0.78125 167.645 0.78125Z" fill="black"/>
<path d="M61.2923 18.8709C61.3157 19.3434 61.2427 19.8158 61.0777 20.2593C60.9127 20.7027 60.6592 21.1079 60.3326 21.4503C59.9666 21.8299 59.5245 22.128 59.0354 22.325C58.5462 22.522 58.021 22.6135 57.4941 22.5935C56.9637 22.5983 56.4378 22.497 55.9472 22.2955C55.4566 22.0941 55.0112 21.7967 54.6372 21.4207C54.2632 21.0447 53.9682 20.5977 53.7694 20.106C53.5706 19.6144 53.4721 19.0879 53.4797 18.5577C53.4722 18.0274 53.5707 17.5009 53.7695 17.0092C53.9683 16.5176 54.2633 16.0706 54.6373 15.6945C55.0113 15.3185 55.4567 15.021 55.9472 14.8195C56.4378 14.618 56.9637 14.5165 57.4941 14.5211C58.0393 14.5195 58.5791 14.6297 59.08 14.845C59.5453 15.0336 59.9594 15.3295 60.2887 15.7084L59.6095 16.3881C59.3507 16.0835 59.0253 15.8424 58.6585 15.6834C58.2917 15.5245 57.8933 15.4519 57.4941 15.4713C57.0921 15.4692 56.6939 15.5483 56.3233 15.7038C55.9527 15.8592 55.6172 16.0879 55.337 16.376C55.0569 16.6642 54.8377 17.006 54.6928 17.3808C54.5478 17.7557 54.48 18.156 54.4934 18.5577C54.4838 19.1593 54.6531 19.7503 54.9798 20.2556C55.3065 20.761 55.776 21.1579 56.3286 21.3961C56.8812 21.6343 57.4921 21.703 58.0838 21.5935C58.6755 21.4841 59.2214 21.2014 59.6522 20.7813C60.0488 20.354 60.2786 19.7985 60.2999 19.216H57.4941V18.2878H61.2382C61.2736 18.4802 61.2917 18.6753 61.2923 18.8709Z" fill="white" stroke="white" stroke-width="0.244874" stroke-miterlimit="10"/>
<path d="M67.2283 15.6439H63.7094V18.0937H66.8825V19.022H63.7094V21.4719H67.2283V22.4214H62.7171V14.6943H67.2283V15.6439Z" fill="white" stroke="white" stroke-width="0.244874" stroke-miterlimit="10"/>
<path d="M71.4156 22.4214H70.422V15.6439H68.2638V14.6943H73.5737V15.6439H71.4156V22.4214Z" fill="white" stroke="white" stroke-width="0.244874" stroke-miterlimit="10"/>
<path d="M77.4155 22.4214V14.6943H78.4078V22.4214H77.4155Z" fill="white" stroke="white" stroke-width="0.244874" stroke-miterlimit="10"/>
<path d="M82.8114 22.4214H81.8178V15.6439H79.6598V14.6943H84.9696V15.6439H82.8114V22.4214Z" fill="white" stroke="white" stroke-width="0.244874" stroke-miterlimit="10"/>
<path d="M95.0222 21.4225C94.2701 22.1723 93.2514 22.5934 92.1893 22.5934C91.1273 22.5934 90.1085 22.1723 89.3564 21.4225C88.9843 21.0456 88.6918 20.5978 88.4963 20.1056C88.3008 19.6134 88.2062 19.087 88.2182 18.5575C88.2062 18.028 88.3008 17.5016 88.4963 17.0094C88.6918 16.5172 88.9843 16.0694 89.3564 15.6926C89.7282 15.3207 90.1696 15.0258 90.6555 14.8248C91.1413 14.6238 91.662 14.5205 92.1879 14.521C92.7137 14.5215 93.2342 14.6256 93.7197 14.8275C94.2052 15.0294 94.6461 15.3251 95.0172 15.6976C95.3895 16.0734 95.6826 16.5203 95.879 17.0115C96.0754 17.5028 96.1711 18.0285 96.1604 18.5575C96.1721 19.0869 96.0774 19.6133 95.8819 20.1054C95.6864 20.5975 95.394 21.0454 95.0222 21.4225ZM90.0896 20.7754C90.6466 21.3315 91.4016 21.6438 92.1887 21.6438C92.9758 21.6438 93.7307 21.3315 94.2878 20.7754C94.5734 20.483 94.7968 20.1357 94.9444 19.7545C95.0921 19.3732 95.1609 18.9661 95.1468 18.5575C95.1609 18.1489 95.0921 17.7418 94.9444 17.3605C94.7968 16.9793 94.5734 16.632 94.2878 16.3396C93.7307 15.7835 92.9758 15.4712 92.1887 15.4712C91.4016 15.4712 90.6466 15.7835 90.0896 16.3396C89.8043 16.6322 89.5813 16.9796 89.4339 17.3608C89.2865 17.742 89.2178 18.1491 89.2319 18.5575C89.2178 18.9659 89.2865 19.373 89.4339 19.7542C89.5813 20.1354 89.8043 20.4828 90.0896 20.7754Z" fill="white" stroke="white" stroke-width="0.244874" stroke-miterlimit="10"/>
<path d="M97.5542 22.4214V14.6943H98.7629L102.518 20.7054H102.561L102.518 19.2162V14.6943H103.512V22.4214H102.475L98.5465 16.1192H98.5037L98.5465 17.6084V22.4214H97.5542Z" fill="white" stroke="white" stroke-width="0.244874" stroke-miterlimit="10"/>
<path d="M87.9735 33.6922C86.8911 33.6963 85.8341 34.0211 84.9361 34.6254C84.038 35.2298 83.3392 36.0867 82.9278 37.0879C82.5164 38.0892 82.4109 39.1898 82.6246 40.251C82.8383 41.3122 83.3616 42.2862 84.1285 43.0502C84.8954 43.8141 85.8714 44.3337 86.9334 44.5434C87.9953 44.753 89.0956 44.6433 90.0953 44.2282C91.0949 43.813 91.9492 43.1109 92.5501 42.2106C93.1511 41.3102 93.4718 40.252 93.4718 39.1696C93.4824 38.4456 93.3473 37.7268 93.0745 37.0561C92.8017 36.3854 92.3967 35.7764 91.8838 35.2654C91.3708 34.7544 90.7603 34.3517 90.0885 34.0815C89.4168 33.8112 88.6975 33.6788 87.9735 33.6922ZM87.9735 42.4893C87.3069 42.5368 86.6414 42.3825 86.0637 42.0466C85.486 41.7106 85.0228 41.2084 84.7345 40.6055C84.4461 40.0026 84.346 39.3268 84.4471 38.6662C84.5482 38.0056 84.8458 37.3907 85.3013 36.9016C85.7567 36.4125 86.3489 36.0719 87.0006 35.9241C87.6524 35.7762 88.3336 35.828 88.9555 36.0728C89.5774 36.3175 90.1112 36.7437 90.4874 37.2961C90.8637 37.8484 91.0649 38.5013 91.0649 39.1696C91.0851 39.5918 91.0207 40.0138 90.8754 40.4107C90.73 40.8076 90.5068 41.1715 90.2187 41.4808C89.9307 41.7902 89.5836 42.0387 89.198 42.2119C88.8125 42.3851 88.3961 42.4794 87.9735 42.4893ZM75.9792 33.6922C74.8968 33.6963 73.8398 34.021 72.9417 34.6254C72.0437 35.2297 71.3448 36.0866 70.9334 37.0878C70.522 38.0891 70.4165 39.1898 70.6302 40.2509C70.8438 41.3121 71.3672 42.2861 72.134 43.0501C72.9009 43.8141 73.8769 44.3337 74.9389 44.5434C76.0008 44.753 77.1011 44.6434 78.1008 44.2282C79.1005 43.813 79.9547 43.1109 80.5557 42.2106C81.1566 41.3103 81.4773 40.2521 81.4773 39.1696C81.488 38.4456 81.3529 37.7269 81.0801 37.0562C80.8073 36.3854 80.4023 35.7765 79.8894 35.2654C79.3764 34.7544 78.7659 34.3518 78.0942 34.0815C77.4224 33.8112 76.7032 33.6789 75.9792 33.6922ZM75.9792 42.4893C75.3126 42.5368 74.6471 42.3825 74.0694 42.0466C73.4917 41.7106 73.0285 41.2084 72.7402 40.6055C72.4518 40.0026 72.3517 39.3268 72.4528 38.6662C72.5539 38.0056 72.8515 37.3907 73.307 36.9016C73.7624 36.4125 74.3546 36.0719 75.0063 35.9241C75.6581 35.7762 76.3393 35.828 76.9612 36.0728C77.5831 36.3175 78.1169 36.7437 78.4931 37.2961C78.8694 37.8484 79.0706 38.5013 79.0706 39.1696C79.0908 39.5918 79.0264 40.0138 78.8811 40.4107C78.7358 40.8077 78.5125 41.1715 78.2244 41.4808C77.9364 41.7902 77.5893 42.0388 77.2037 42.212C76.8181 42.3851 76.4018 42.4794 75.9792 42.4893ZM61.7113 35.3729V37.6965H67.2719C67.1917 38.7865 66.7457 39.8173 66.0062 40.622C65.449 41.19 64.7789 41.6349 64.0391 41.9279C63.2993 42.2209 62.5064 42.3556 61.7113 42.3233C60.086 42.3013 58.5348 41.6402 57.3932 40.4831C56.2517 39.326 55.6116 37.7659 55.6116 36.1404C55.6116 34.515 56.2517 32.9549 57.3932 31.7978C58.5348 30.6407 60.086 29.9796 61.7113 29.9576C63.2725 29.9372 64.7786 30.5337 65.9025 31.6174L67.5416 29.9783C66.7747 29.2192 65.864 28.6207 64.8629 28.2181C63.8617 27.8155 62.7903 27.6169 61.7113 27.6338C60.5838 27.6174 59.4643 27.8253 58.4178 28.2454C57.3713 28.6656 56.4188 29.2895 55.6157 30.0811C54.8125 30.8726 54.1747 31.8159 53.7394 32.8562C53.3041 33.8964 53.0799 35.0128 53.0799 36.1404C53.0799 37.2681 53.3041 38.3845 53.7394 39.4247C54.1747 40.4649 54.8125 41.4083 55.6157 42.1998C56.4188 42.9913 57.3713 43.6153 58.4178 44.0355C59.4643 44.4556 60.5838 44.6635 61.7113 44.6471C62.813 44.6928 63.9119 44.5036 64.9349 44.0923C65.958 43.6809 66.8819 43.0567 67.6453 42.2611C69.0006 40.7817 69.723 38.8305 69.6579 36.8252C69.6632 36.3382 69.6215 35.8518 69.5333 35.3729H61.7113ZM120.062 37.1778C119.733 36.1857 119.106 35.3189 118.267 34.6953C117.428 34.0718 116.418 33.7215 115.373 33.6922C114.669 33.6966 113.973 33.8436 113.328 34.1244C112.683 34.4052 112.101 34.814 111.618 35.326C111.135 35.8379 110.761 36.4425 110.519 37.1032C110.276 37.7638 110.17 38.4668 110.207 39.1696C110.191 39.8897 110.32 40.6057 110.587 41.2747C110.854 41.9437 111.253 42.552 111.761 43.0632C112.268 43.5745 112.874 43.9783 113.54 44.2504C114.207 44.5225 114.922 44.6574 115.643 44.6471C116.545 44.6521 117.434 44.4329 118.231 44.0092C119.028 43.5855 119.707 42.9706 120.207 42.2196L118.34 40.9748C118.06 41.4393 117.664 41.8232 117.191 42.0887C116.719 42.3542 116.185 42.4923 115.643 42.4893C115.085 42.5106 114.533 42.3638 114.059 42.0678C113.586 41.7719 113.212 41.3404 112.987 40.8295L120.311 37.8004L120.062 37.1778ZM112.593 39.0037C112.567 38.6051 112.621 38.2052 112.751 37.8277C112.882 37.4501 113.087 37.1024 113.353 36.8049C113.62 36.5074 113.943 36.266 114.304 36.0949C114.665 35.9239 115.057 35.8265 115.456 35.8086C115.871 35.7812 116.286 35.8768 116.647 36.0834C117.009 36.2901 117.302 36.5986 117.489 36.9705L112.593 39.0037ZM106.638 44.3151H109.045V28.2149H106.638V44.3151ZM102.696 34.9163H102.613C102.247 34.5188 101.8 34.2039 101.303 33.9929C100.806 33.7818 100.269 33.6793 99.7288 33.6922C98.3164 33.7523 96.9819 34.3557 96.0037 35.3763C95.0256 36.397 94.4795 37.756 94.4795 39.1697C94.4795 40.5833 95.0256 41.9423 96.0037 42.963C96.9819 43.9836 98.3164 44.587 99.7288 44.6471C100.271 44.6615 100.81 44.5576 101.308 44.3426C101.806 44.1277 102.251 43.8067 102.613 43.4022H102.696V44.1907C102.696 46.2862 101.575 47.4065 99.7703 47.4065C99.1687 47.3921 98.585 47.199 98.0936 46.8516C97.6022 46.5043 97.2253 46.0185 97.0109 45.4562L94.9153 46.3277C95.3103 47.2893 95.9834 48.1111 96.8483 48.6877C97.7133 49.2644 98.7307 49.5696 99.7703 49.5643C102.592 49.5643 104.978 47.9046 104.978 43.8586V34.0241H102.696V34.9163ZM99.9364 42.4893C99.1045 42.4187 98.3295 42.0385 97.7646 41.4237C97.1998 40.8089 96.8863 40.0045 96.8863 39.1697C96.8863 38.3348 97.1998 37.5304 97.7646 36.9156C98.3295 36.3009 99.1045 35.9206 99.9364 35.85C100.35 35.8702 100.756 35.9736 101.129 36.1538C101.502 36.3341 101.835 36.5877 102.108 36.8994C102.381 37.2111 102.588 37.5746 102.718 37.9682C102.847 38.3618 102.896 38.7774 102.862 39.1903C102.894 39.6007 102.843 40.0133 102.713 40.4036C102.582 40.7939 102.374 41.1538 102.101 41.4618C101.827 41.7698 101.495 42.0195 101.123 42.196C100.751 42.3726 100.348 42.4723 99.9364 42.4893ZM131.336 28.2151H125.577V44.3151H127.98V38.2153H131.336C132.015 38.2526 132.695 38.1509 133.334 37.9164C133.973 37.682 134.558 37.3197 135.052 36.8517C135.547 36.3838 135.94 35.82 136.209 35.1947C136.479 34.5695 136.617 33.8959 136.617 33.2152C136.617 32.5345 136.479 31.861 136.209 31.2357C135.94 30.6105 135.547 30.0467 135.052 29.5787C134.558 29.1107 133.973 28.7485 133.334 28.514C132.695 28.2796 132.015 28.1779 131.336 28.2151ZM131.398 35.9747H127.98V30.4559H131.398C131.765 30.4483 132.13 30.514 132.471 30.6493C132.813 30.7845 133.124 30.9866 133.386 31.2436C133.649 31.5005 133.857 31.8073 133.999 32.1459C134.142 32.4845 134.215 32.848 134.215 33.2153C134.215 33.5825 134.142 33.9461 133.999 34.2847C133.857 34.6233 133.649 34.93 133.386 35.187C133.124 35.444 132.813 35.646 132.471 35.7813C132.13 35.9166 131.765 35.9823 131.398 35.9747ZM146.249 33.6626C145.372 33.6114 144.499 33.8174 143.737 34.2552C142.976 34.6931 142.358 35.3438 141.961 36.1274L144.095 37.0181C144.306 36.6291 144.627 36.3103 145.016 36.1006C145.406 35.8909 145.849 35.7994 146.29 35.8374C146.9 35.7779 147.508 35.9625 147.982 36.3508C148.455 36.739 148.756 37.2993 148.817 37.9087V38.0744C148.046 37.6644 147.185 37.451 146.311 37.453C144.012 37.453 141.671 38.7165 141.671 41.0778C141.694 41.5754 141.816 42.0635 142.03 42.5131C142.245 42.9626 142.548 43.3645 142.92 43.6948C143.293 44.0252 143.729 44.2773 144.201 44.4361C144.673 44.595 145.172 44.6574 145.669 44.6196C146.274 44.6553 146.877 44.528 147.417 44.2512C147.956 43.9743 148.411 43.558 148.734 43.0455H148.817V44.2883H151.137V38.1159C151.137 35.2575 149.004 33.6626 146.249 33.6626ZM145.959 42.4862C145.172 42.4862 144.074 42.0928 144.074 41.1191C144.074 39.8765 145.441 39.4 146.622 39.4C147.389 39.3796 148.147 39.5656 148.817 39.9386C148.729 40.6369 148.391 41.2796 147.865 41.748C147.34 42.2163 146.663 42.4785 145.959 42.4862ZM159.588 34.0147L156.833 40.9949H156.75L153.892 34.0147H151.303L155.59 43.7704L153.146 49.1972H155.652L162.26 34.0147H159.588ZM137.943 44.3151H140.346V28.2151H137.943V44.3151Z" fill="white"/>
<path d="M13.6627 15.387C13.2403 15.8919 13.0271 16.5392 13.0666 17.1963V45.6785C13.027 46.3355 13.2402 46.9829 13.6627 47.4878L13.758 47.5806L29.7132 31.6256V31.2491L13.758 15.2935L13.6627 15.387Z" fill="url(#paint0_linear)"/>
<path d="M35.0322 36.9466L29.7141 31.6259V31.2495L35.0335 25.9302L35.1534 25.9986L41.4546 29.5789C43.2545 30.6015 43.2545 32.2746 41.4546 33.2978L35.1534 36.8782L35.0322 36.9466Z" fill="url(#paint1_linear)"/>
<path d="M35.1532 36.8768L29.7139 31.437L13.6634 47.4873C14.0301 47.8108 14.4985 47.9958 14.9873 48.0102C15.476 48.0247 15.9545 47.8677 16.3397 47.5664L35.1532 36.8768Z" fill="url(#paint2_linear)"/>
<path d="M35.1532 25.9972L16.3397 15.3075C15.9545 15.0063 15.476 14.8493 14.9873 14.8637C14.4985 14.8781 14.0301 15.0631 13.6634 15.3866L29.7139 31.4371L35.1532 25.9972Z" fill="url(#paint3_linear)"/>
<path opacity="0.2" d="M35.0333 36.7568L16.3397 47.3781C15.9693 47.6601 15.5173 47.8139 15.0518 47.8164C14.5863 47.8189 14.1327 47.6699 13.7593 47.3919L13.6634 47.4878L13.7587 47.5807L13.7593 47.5801C14.1326 47.8582 14.5863 48.0073 15.0518 48.0048C15.5173 48.0023 15.9694 47.8484 16.3397 47.5663L35.1532 36.8766L35.0333 36.7568Z" fill="black"/>
<path opacity="0.12" d="M13.6626 47.3005C13.2404 46.7955 13.0271 46.1483 13.0666 45.4912V45.6794C13.0271 46.3364 13.2403 46.9837 13.6626 47.4886L13.7586 47.3927L13.6626 47.3005Z" fill="black"/>
<path opacity="0.12" d="M41.4547 33.1077L35.0336 36.7565L35.1535 36.8762L41.4547 33.2959C41.8254 33.135 42.1462 32.8777 42.3836 32.5508C42.6211 32.2239 42.7665 31.8393 42.8048 31.437C42.7251 31.8013 42.5616 32.1419 42.3273 32.432C42.0929 32.722 41.7942 32.9534 41.4547 33.1077Z" fill="black"/>
<path opacity="0.25" d="M16.339 15.4967L41.4537 29.766C41.7933 29.9204 42.0921 30.1518 42.3265 30.442C42.5609 30.7322 42.7243 31.073 42.8038 31.4374C42.7658 31.035 42.6204 30.6502 42.383 30.3231C42.1455 29.996 41.8246 29.7387 41.4537 29.5779L16.339 15.3085C14.5391 14.2858 13.0667 15.1353 13.0667 17.1969V17.385C13.0667 15.3236 14.5391 14.4741 16.339 15.4967Z" fill="white"/>
</g>
<defs>
<linearGradient id="paint0_linear" x1="28.2983" y1="16.8959" x2="6.68506" y2="38.5092" gradientUnits="userSpaceOnUse">
<stop stop-color="#00A0FF"/>
<stop offset="0.00657" stop-color="#00A1FF"/>
<stop offset="0.2601" stop-color="#00BEFF"/>
<stop offset="0.5122" stop-color="#00D2FF"/>
<stop offset="0.7604" stop-color="#00DFFF"/>
<stop offset="1" stop-color="#00E3FF"/>
</linearGradient>
<linearGradient id="paint1_linear" x1="43.7981" y1="31.4384" x2="12.6359" y2="31.4384" gradientUnits="userSpaceOnUse">
<stop stop-color="#FFE000"/>
<stop offset="0.4087" stop-color="#FFBD00"/>
<stop offset="0.7754" stop-color="#FFA500"/>
<stop offset="1" stop-color="#FF9C00"/>
</linearGradient>
<linearGradient id="paint2_linear" x1="32.1976" y1="34.3928" x2="2.8884" y2="63.7021" gradientUnits="userSpaceOnUse">
<stop stop-color="#FF3A44"/>
<stop offset="1" stop-color="#C31162"/>
</linearGradient>
<linearGradient id="paint3_linear" x1="9.62201" y1="5.90565" x2="22.7098" y2="18.9935" gradientUnits="userSpaceOnUse">
<stop stop-color="#32A071"/>
<stop offset="0.0685" stop-color="#2DA771"/>
<stop offset="0.4762" stop-color="#15CF74"/>
<stop offset="0.8009" stop-color="#06E775"/>
<stop offset="1" stop-color="#00F076"/>
</linearGradient>
<clipPath id="clip0">
<rect x="0.224365" y="0.87207" width="173.86" height="61.1277" rx="30.5639" fill="white"/>
</clipPath>
</defs>
</svg>
