<svg width="73" height="72" viewBox="0 0 73 72" fill="none" xmlns="http://www.w3.org/2000/svg">
<g clip-path="url(#clip0)">
<path d="M63.0612 41.5552L41.457 15.5469C40.2459 14.0887 38.3622 13.3738 36.4891 13.6545L33.7416 14.0696L23.6178 15.5953L23.4212 15.6243C23.3214 15.6391 23.2236 15.6567 23.1266 15.6773C23.0758 15.6881 23.0239 15.7007 22.9718 15.7134C21.8902 15.9707 20.929 16.5516 20.2046 17.3606C19.736 17.8819 19.365 18.4982 19.1243 19.1835L14.719 31.7428C14.091 33.5356 14.4469 35.5279 15.6621 36.9901L37.258 62.9888C38.3608 64.3155 39.8993 65.0651 41.4901 65.2049C42.7875 65.3202 44.121 65.0287 45.2834 64.3117C45.531 64.1593 45.7713 63.9875 46.0028 63.7967L48.1448 62.0169L62.2514 50.299C64.8901 48.1077 65.252 44.1924 63.0612 41.5552ZM28.6207 29.4026C28.5644 29.4853 28.5087 29.5649 28.4495 29.6417C28.4246 29.676 28.3967 29.7109 28.3696 29.7424C28.281 29.8482 28.1866 29.9486 28.0888 30.0419C28.0556 30.0747 28.0235 30.1057 27.9892 30.1339C27.956 30.1667 27.9205 30.1968 27.886 30.2234C26.7053 31.1953 24.9867 31.3401 23.6349 30.4623C21.9635 29.3756 21.4896 27.1459 22.5751 25.4764C23.563 23.9532 25.5042 23.4247 27.1072 24.1671C27.2143 24.2167 27.3227 24.2726 27.4294 24.3352C27.4724 24.3631 27.5161 24.3876 27.5611 24.4168C29.2302 25.5006 29.7041 27.7303 28.6207 29.4026Z" fill="url(#paint0_linear)"/>
<path d="M37.258 62.9886C38.3608 64.3153 39.8992 65.0649 41.4901 65.2047C42.7875 65.32 44.121 65.0285 45.2834 64.3115C45.531 64.1591 45.7713 63.9873 46.0028 63.7965L48.1448 62.0167L62.2514 50.2988C64.89 48.1075 65.252 44.1923 63.0613 41.5551L52.9687 29.405L40.1114 21.0554C39.6432 20.6852 39.1116 20.3885 38.5312 20.1867L35.9049 19.2749L26.0463 15.8531C25.2376 15.5725 24.391 15.4945 23.5719 15.6018L23.435 15.622C23.3928 15.6285 23.3506 15.6366 23.3085 15.6443C23.2552 15.6535 23.2013 15.6621 23.1488 15.673C23.0543 15.6931 22.9606 15.7172 22.867 15.7423C22.8291 15.7522 22.7915 15.7632 22.754 15.7738C21.9596 16.0063 21.2149 16.42 20.587 17.0045L20.2027 17.3623C19.735 17.8832 19.3646 18.4988 19.1241 19.1832L14.7189 31.7425C14.0909 33.5353 14.4468 35.5276 15.6619 36.9898L37.258 62.9886ZM22.575 25.4761C23.5629 23.9529 25.504 23.4244 27.107 24.1668C27.2141 24.2164 27.3225 24.2722 27.4292 24.3349C27.4722 24.3628 27.516 24.3873 27.5609 24.4164C29.2301 25.5005 29.704 27.73 28.6207 29.4023C28.5643 29.4851 28.5086 29.5646 28.4495 29.6415C28.4245 29.6758 28.3966 29.7107 28.3695 29.7422C28.2809 29.8479 28.1865 29.9484 28.0888 30.0417C28.0556 30.0745 28.0235 30.1055 27.9892 30.1337C27.956 30.1664 27.9205 30.1966 27.886 30.2232C26.7053 31.195 24.9867 31.3399 23.6349 30.4621C21.9635 29.3754 21.4896 27.1457 22.575 25.4761Z" fill="url(#paint1_linear)"/>
<path d="M38.531 20.1868L35.9048 19.275L26.0461 15.8533C24.1539 15.197 22.0532 15.6398 20.587 17.0047L10.8461 26.075C9.4555 27.3692 8.84526 29.2987 9.24041 31.1578L16.2676 64.2182C16.9805 67.572 20.2776 69.7131 23.6331 68.9999L44.2954 64.608C47.6493 63.8951 49.7904 60.598 49.0775 57.2442L42.0477 24.1716C41.6538 22.3177 40.3198 20.8088 38.531 20.1868ZM23.6341 30.4618C21.964 29.3758 21.49 27.1457 22.5743 25.4762C23.563 23.9538 25.5041 23.4253 27.1063 24.1666C27.2147 24.2161 27.3228 24.2729 27.4286 24.3356C27.4723 24.3625 27.5158 24.3877 27.56 24.4164C29.2295 25.5006 29.7036 27.7308 28.6197 29.4021C28.5647 29.4845 28.5093 29.5651 28.4495 29.6413C28.4242 29.6757 28.3971 29.7105 28.3694 29.7418C28.2813 29.8475 28.187 29.9491 28.0889 30.0424C28.056 30.0748 28.0225 30.1056 27.9888 30.1344C27.9559 30.1667 27.9203 30.1961 27.8863 30.2233C26.7045 31.1957 24.9862 31.3399 23.6341 30.4618Z" fill="url(#paint2_linear)"/>
<path opacity="0.5" d="M49.0777 57.2439C49.0777 57.2439 49.0467 57.0978 48.9893 56.8279L24.2883 40.7913C23.3635 40.3273 22.2498 40.2332 20.9469 40.5101C18.0849 41.1184 16.9341 42.7411 17.4946 45.3779L18.5062 50.1371C18.8096 51.5646 19.4534 52.5124 20.4313 52.9887L39.796 65.5643L44.2957 64.6078C47.6494 63.8948 49.7906 60.5977 49.0777 57.2439Z" fill="url(#paint3_linear)"/>
<path opacity="0.5" d="M34.612 36.6642C34.2809 36.4883 33.9429 36.4367 33.5972 36.5102C33.1269 36.6101 32.8474 36.8713 32.7585 37.2935L26.0184 63.4213C25.965 63.5897 25.9565 63.7595 25.9929 63.9308C26.0567 64.2308 26.2333 64.4788 26.5233 64.6752L30.8275 67.4703L44.2955 64.6076C47.6494 63.8947 49.7904 60.5977 49.0776 57.2439C49.0776 57.2439 48.1608 52.9311 47.0189 47.5587L46.3293 44.3145L34.612 36.6642Z" fill="url(#paint4_linear)"/>
<path opacity="0.5" d="M40.7728 48.6138C39.848 48.1498 38.7342 48.0557 37.4314 48.3326C34.5694 48.9409 33.4186 50.5636 33.9791 53.2005L34.9907 57.9596C35.2941 59.3871 35.9379 60.3349 36.9158 60.8113L43.14 64.8533L44.2953 64.6077C47.6492 63.8948 49.7902 60.5978 49.0773 57.244C49.0773 57.244 48.7652 55.7755 48.2788 53.4872L40.7728 48.6138Z" fill="url(#paint5_linear)"/>
<path d="M18.5061 50.1371L17.4945 45.3779C16.934 42.7411 18.0848 41.1184 20.9468 40.5101C22.2496 40.2332 23.3636 40.3272 24.2882 40.7913C25.2125 41.256 25.821 42.1744 26.1125 43.546L27.1241 48.3052C27.4158 49.6774 27.2335 50.7638 26.578 51.5638C25.922 52.3644 24.9426 52.9028 23.6398 53.1797C20.7779 53.7882 19.0666 52.7739 18.5061 50.1371ZM20.7778 49.5981C21.0406 50.8347 21.8419 51.3103 23.1818 51.0255C24.5428 50.7362 25.0922 49.9735 24.8294 48.7369L23.8406 44.0852C23.5779 42.8492 22.7657 42.3755 21.4047 42.6647C20.0646 42.9496 19.5263 43.7104 19.789 44.9464C19.7891 44.9463 20.7779 49.5981 20.7778 49.5981ZM25.9929 63.931C25.9565 63.7596 25.965 63.5899 26.0184 63.4215L32.7585 37.2937C32.8474 36.8714 33.127 36.6103 33.5973 36.5103C33.9429 36.4369 34.281 36.4885 34.6121 36.6644C34.9431 36.8409 35.1453 37.1003 35.2181 37.443C35.2547 37.6149 35.2589 37.793 35.2314 37.9779L28.4699 64.0095C28.3637 64.4575 28.044 64.7388 27.5099 64.8523C27.1423 64.9304 26.8135 64.8711 26.5233 64.6755C26.2333 64.4792 26.0567 64.2311 25.9929 63.931ZM35.005 58.026L33.9857 53.2306C33.4209 50.5737 34.5696 48.941 37.4316 48.3327C38.7344 48.0558 39.8489 48.1524 40.7746 48.6215C41.6998 49.0907 42.3099 50.0166 42.6037 51.3988L43.623 56.1942C43.9169 57.5769 43.7361 58.6708 43.0818 59.4759C42.4268 60.281 41.4479 60.8219 40.1451 61.0988C37.283 61.7072 35.5697 60.6829 35.005 58.026ZM37.2786 57.496C37.5444 58.7464 38.3471 59.2293 39.6871 58.9445C41.0481 58.6552 41.596 57.8855 41.3302 56.6348L40.3299 51.9287C40.0642 50.6787 39.2504 50.1977 37.8894 50.487C36.5493 50.7719 36.0125 51.5398 36.2783 52.7899L37.2786 57.496Z" fill="url(#paint6_linear)"/>
<path d="M42.0478 24.1713L44.4374 35.4133L27.9174 24.6852C27.8054 24.5898 27.6864 24.4993 27.561 24.4165C27.5162 24.3875 27.4723 24.363 27.4293 24.335C27.3998 24.3171 27.3705 24.3007 27.3401 24.2864C27.2631 24.2416 27.1838 24.2022 27.1072 24.167C25.5792 23.4601 23.7446 23.9065 22.7212 25.27L20.906 16.7302C22.2041 15.6977 23.9051 15.3186 25.5149 15.6989C25.6926 15.74 25.8711 15.7921 26.0466 15.8532L35.9054 19.2745L38.5311 20.1873C40.3191 20.8083 41.6537 22.3173 42.0478 24.1713Z" fill="url(#paint7_linear)"/>
<path d="M25.9229 28.9761C24.6474 29.2473 23.3934 28.433 23.1223 27.1574L19.6846 10.9842C19.4135 9.70868 20.2278 8.45475 21.5033 8.18363C22.7789 7.9125 24.0328 8.72681 24.3039 10.0024L27.7416 26.1754C28.0129 27.4511 27.1985 28.705 25.9229 28.9761Z" fill="url(#paint8_linear)"/>
</g>
<defs>
<linearGradient id="paint0_linear" x1="16.8604" y1="37.3051" x2="48.4596" y2="40.2275" gradientUnits="userSpaceOnUse">
<stop stop-color="#FFB92D"/>
<stop offset="1" stop-color="#F59500"/>
</linearGradient>
<linearGradient id="paint1_linear" x1="55.6506" y1="35.716" x2="32.4356" y2="40.5516" gradientUnits="userSpaceOnUse">
<stop stop-color="#BE3F45" stop-opacity="0"/>
<stop offset="1" stop-color="#BE3F45"/>
</linearGradient>
<linearGradient id="paint2_linear" x1="10.1547" y1="31.9948" x2="36.7676" y2="49.2774" gradientUnits="userSpaceOnUse">
<stop stop-color="#FFF465"/>
<stop offset="1" stop-color="#FFE600"/>
</linearGradient>
<linearGradient id="paint3_linear" x1="32.0869" y1="53.219" x2="20.4074" y2="45.6342" gradientUnits="userSpaceOnUse">
<stop stop-color="#FFE600" stop-opacity="0"/>
<stop offset="1" stop-color="#F59500"/>
</linearGradient>
<linearGradient id="paint4_linear" x1="44.1025" y1="59.4601" x2="26.1212" y2="47.7828" gradientUnits="userSpaceOnUse">
<stop stop-color="#FFE600" stop-opacity="0"/>
<stop offset="1" stop-color="#F59500"/>
</linearGradient>
<linearGradient id="paint5_linear" x1="51.9594" y1="63.2439" x2="34.1611" y2="51.6846" gradientUnits="userSpaceOnUse">
<stop stop-color="#FFE600" stop-opacity="0"/>
<stop offset="1" stop-color="#F59500"/>
</linearGradient>
<linearGradient id="paint6_linear" x1="29.0698" y1="43.7833" x2="35.2107" y2="72.674" gradientUnits="userSpaceOnUse">
<stop stop-color="white"/>
<stop offset="1" stop-color="#E2EDF2"/>
</linearGradient>
<linearGradient id="paint7_linear" x1="41.2482" y1="27.4811" x2="14.9287" y2="19.3804" gradientUnits="userSpaceOnUse">
<stop stop-color="#FFE600" stop-opacity="0"/>
<stop offset="1" stop-color="#F59500"/>
</linearGradient>
<linearGradient id="paint8_linear" x1="22.5793" y1="18.822" x2="26.8896" y2="17.9058" gradientUnits="userSpaceOnUse">
<stop stop-color="#62E1FB"/>
<stop offset="1" stop-color="#00A2F3"/>
</linearGradient>
<clipPath id="clip0">
<rect width="60.2046" height="60.2046" fill="white" transform="translate(0.692596 12.6072) rotate(-12)"/>
</clipPath>
</defs>
</svg>
