<svg width="95" height="95" viewBox="0 0 95 95" fill="none" xmlns="http://www.w3.org/2000/svg">
<g clip-path="url(#clip0)">
<path d="M2.00073 72.3722C1.93739 72.5449 2.11223 72.7092 2.28074 72.6353L17.4246 67.8549C17.5559 67.7973 17.705 67.8862 17.7167 68.0292L19.5837 85.6437C19.5989 85.8285 19.8294 85.9034 19.9503 85.7627L23.4099 85.0149L32.058 74.9451C32.1403 74.8494 32.2881 74.8478 32.3721 74.9421L41.6343 83.3936C41.7284 83.4989 41.8975 83.4826 41.9696 83.3613L45.6114 83.4124L52.2358 72.2776C52.2991 72.1711 52.4406 72.1429 52.54 72.2169L67.1152 81.6515C67.2551 81.7557 67.4535 81.6525 67.4487 81.478L70.1852 81.0692L68.3162 41.1949L76.9597 19.3013C77.0197 19.1474 76.8858 18.9881 76.7238 19.0207L58.3721 22.7281C58.2385 22.7551 58.1153 22.649 58.1222 22.5129L58.7475 10.0072L56.7803 7.85521C56.7899 7.66156 56.5537 7.56042 56.4203 7.7011L45.068 18.3563C44.9713 18.4582 44.8038 18.4375 44.7347 18.3152L40.872 11.473L37.6853 10.7949C37.6059 10.6542 37.4034 10.6531 37.3226 10.7932L30.4372 20.0419C30.3667 20.1638 30.1982 20.1826 30.1028 20.0792L20.2102 9.35221L16.4149 10.5337C16.2838 10.3915 16.0466 10.4886 16.0527 10.6819L14.9407 21.147C14.9452 21.2902 14.8075 21.3952 14.6707 21.3532L5.08051 18.411L1.04361 18.4C0.863966 18.345 0.708508 18.5367 0.799672 18.701L14.8795 42.3524L2.00073 72.3722Z" fill="#FFC502"/>
<path d="M33.6464 23.9066C33.7418 24.01 33.9103 23.9914 33.9807 23.8694L41.0055 11.7097L38.3391 6.98629C38.2596 6.84561 38.0571 6.84446 37.9763 6.98456L30.4345 20.0397C30.4303 20.047 30.3768 20.1374 30.2689 20.1449C30.1724 20.1516 30.1102 20.0868 30.1023 20.0781C31.2836 21.3544 32.4651 22.6305 33.6464 23.9066Z" fill="#FFC502"/>
<path d="M46.9089 22.0963C46.978 22.2186 47.1456 22.2393 47.2423 22.1374L58.7463 10.0065L59.0384 4.16344C59.048 3.96979 58.8118 3.86865 58.6784 4.00933L45.0655 18.356C45.0592 18.3627 44.988 18.4354 44.8828 18.4195C44.7853 18.4047 44.7386 18.3256 44.7331 18.3158C45.4585 19.5758 46.1836 20.836 46.9089 22.0963Z" fill="#FFC502"/>
<path d="M20.4776 23.1182C20.6144 23.1602 20.752 23.055 20.7476 22.9121L20.3325 9.48648L14.7525 3.43591C14.6215 3.2937 14.3842 3.39081 14.3904 3.58408L14.9391 21.1452C14.9395 21.1554 14.9412 21.2525 14.8602 21.3168C14.7761 21.3836 14.6777 21.3556 14.669 21.3529C16.6054 21.9413 18.5415 22.5297 20.4776 23.1182Z" fill="#FFC502"/>
<path d="M21.6037 62.3649C21.592 62.2219 21.4431 62.1331 21.3116 62.1907L8.71051 67.4591C8.24106 67.6555 7.76644 67.1908 7.9526 66.7172L17.99 41.1941L5.03499 18.3961L-1.43607 16.4107C-1.61571 16.3556 -1.77117 16.5474 -1.68001 16.7116L12.2323 41.1941L-2.146 77.7558C-2.20933 77.9285 -2.03449 78.0928 -1.86598 78.0189L4.62907 75.1691L16.2155 70.0852C16.3467 70.0276 16.4959 70.1165 16.5076 70.2595L18.1692 90.5691C18.1844 90.754 18.4149 90.8288 18.5358 90.6881L23.4091 85.0137L21.6037 62.3649Z" fill="#FFC502"/>
<path d="M54.3064 69.2438C54.207 69.1699 54.0655 69.1982 54.0022 69.3045L52.2354 72.2774C52.2434 72.2641 52.2824 72.2031 52.3618 72.1822C52.4559 72.1574 52.5298 72.2087 52.5399 72.216C58.3729 76.5599 64.2058 80.9039 70.0389 85.2481C70.1788 85.3523 70.3773 85.2491 70.3725 85.0746L70.1848 81.069L54.3064 69.2438Z" fill="#FFC502"/>
<path d="M35.2064 71.6654C35.1223 71.5712 34.9743 71.5725 34.8922 71.6685L32.0573 74.9446C32.065 74.936 32.1318 74.864 32.2341 74.8727C32.3122 74.8792 32.3603 74.9287 32.3719 74.9414L43.1485 87.0193C43.2426 87.1246 43.4116 87.1083 43.4838 86.987L45.6414 83.3604L35.2064 71.6654Z" fill="#FFC502"/>
<path d="M22.7007 30.0568C20.1021 29.54 17.576 31.2283 17.0593 33.8275L16.2419 37.9402C16.1254 38.5268 15.3027 38.5688 15.1269 37.9972L13.7168 33.4139C12.9497 30.9209 10.3528 29.4026 7.83666 30.0904C6.06598 30.5746 4.81196 31.9785 4.42562 33.6331L3.07467 38.0036C2.8981 38.5747 2.07552 38.5318 1.95979 37.945L1.13894 33.7895C0.819768 32.1739 -0.275536 30.909 -1.68329 30.3063C-2.54061 29.9392 -2.78608 30.6412 -3.77026 30.8358C-6.36986 31.3494 -8.06089 33.8732 -7.54749 36.4728L-3.26186 58.2238C-3.21656 58.4528 -3.15476 58.6783 -3.07665 58.8984C-2.32278 61.023 -0.309122 62.4436 1.94233 62.4436H1.97917C2.63613 62.439 2.81423 62.8023 3.40343 62.5743C4.8465 62.016 6.0109 60.8418 6.52813 59.3178C6.54214 59.2763 6.55577 59.2347 6.56863 59.1928L8.54294 52.806C8.71029 52.2646 9.47664 52.2652 9.64342 52.8068L11.6083 59.1934C11.6283 59.2583 11.6496 59.323 11.6724 59.3869C12.4263 61.5115 14.44 62.9321 16.6914 62.9321H16.7279C18.5367 62.9198 20.1838 61.9918 21.1454 60.5263C21.3883 60.1561 20.6015 56.8003 20.7485 56.3675C20.816 56.1687 20.7076 53.7891 20.7485 53.5831L24.6301 35.8849C24.9324 34.3643 26.3213 32.6818 25.3732 31.5989C24.7007 30.8314 23.7791 30.2712 22.7007 30.0568Z" fill="#C0272D"/>
<path d="M0.304704 59.387C0.226591 59.1671 0.164792 58.9416 0.119498 58.7124L-4.43656 35.6494C-4.88144 33.397 -3.67098 31.2028 -1.64888 30.3222C-2.51464 29.9435 -3.50017 29.8151 -4.49778 30.0123C-7.09757 30.526 -8.7886 33.0498 -8.27502 35.6494L-3.71896 58.7124C-3.67367 58.9414 -3.61187 59.1669 -3.53375 59.387C-2.77988 61.5116 -0.766226 62.9322 1.48522 62.9322H1.52207C2.17941 62.9276 2.8141 62.7988 3.40349 62.5706C1.98556 62.021 0.834027 60.8788 0.304704 59.387Z" fill="#FF3A44"/>
<path d="M79.3187 31.5321C76.7203 31.0162 74.194 32.7036 73.6774 35.3028L72.86 39.4155C72.7435 40.002 71.9207 40.0441 71.7449 39.4725L70.3348 34.8892C69.5677 32.3961 66.9708 30.8778 64.4547 31.5657C62.684 32.0499 61.43 33.4538 61.0436 35.1084L59.6927 39.4789C59.5161 40.05 58.6935 40.007 58.5778 39.4203L57.757 35.2648C57.424 33.5792 56.246 32.2752 54.7497 31.7069C53.9661 31.4093 53.0034 32.0123 52.121 32.1689C49.4717 32.6395 51.0115 37.7036 51.5329 40.3433L53.8241 56.3178C53.8694 56.5469 53.9314 56.7725 54.0095 56.9928C54.7634 59.117 55.3577 63.7661 57.609 63.7661C57.6213 63.7661 58.2826 63.9623 58.2949 63.9621C58.9519 63.9575 59.4325 64.2772 60.0215 64.0494C61.4645 63.4911 62.6289 62.3169 63.1464 60.7929C63.1604 60.7514 63.174 60.7098 63.1868 60.6679L65.1612 54.2811C65.3285 53.7397 66.0949 53.7403 66.2616 54.2819L68.2266 60.6685C68.2465 60.7335 68.268 60.7982 68.2907 60.8623C69.0445 62.9865 71.0584 64.4071 73.3096 64.4071C73.3217 64.4071 73.334 64.4071 73.3461 64.407C75.6119 64.3914 77.6239 62.9393 78.3526 60.7936C78.4201 60.5948 78.4745 60.3919 78.5153 60.186L83.0894 37.1727C83.6061 34.5745 81.9179 32.0488 79.3187 31.5321Z" fill="#C0272D"/>
<path d="M25.3345 31.5546C20.2547 35.2998 16.9525 41.3233 16.9525 48.1043C16.9525 52.7677 18.5149 57.0725 21.1423 60.525C21.3857 60.1544 21.5874 59.7512 21.7346 59.3178C21.8022 59.119 21.8565 58.9161 21.8974 58.7102L26.4715 35.6969C26.7778 34.1559 26.3089 32.6407 25.3345 31.5546Z" fill="#FF3A44"/>
<path d="M50.4637 32.1689C48.8587 33.2291 47.9678 35.2324 48.3625 37.2305L52.8977 60.1876C52.943 60.4167 53.005 60.6423 53.0831 60.8626C53.1345 61.0075 53.1929 61.1484 53.2558 61.2865C56.2487 57.7158 58.0537 53.1173 58.0537 48.1047C58.0535 41.6828 55.0919 35.9402 50.4637 32.1689Z" fill="#FF3A44"/>
<path d="M56.9215 60.863C56.8434 60.6428 56.7814 60.4171 56.7361 60.188L52.201 37.2309C51.7544 34.9699 52.9539 32.7025 54.972 31.8024C54.0883 31.4145 53.079 31.2882 52.0603 31.5016C49.4711 32.044 47.8512 34.6428 48.3641 37.2382L52.8977 60.188C52.943 60.4171 53.0049 60.6426 53.0831 60.863C53.8369 62.9872 55.8508 64.4078 58.102 64.4078C58.1143 64.4078 58.1268 64.4078 58.1391 64.4076C58.7964 64.403 59.4309 64.2744 60.0203 64.0462C58.6026 63.4965 57.451 62.3546 56.9215 60.863Z" fill="#FF3A44"/>
<path d="M37.5041 64.419C28.4032 64.419 21.1907 57.2065 21.1907 48.1055C21.1907 42.5791 23.7289 37.6784 27.9113 34.6811C30.6166 32.7423 33.9294 31.6002 37.5041 31.6002C46.6051 31.6002 54.0095 39.0045 54.0095 48.1055C54.0095 51.8732 52.7405 55.3502 50.6075 58.1314C47.5882 62.0681 42.8375 64.419 37.5041 64.419ZM37.5041 41.1963C33.6943 41.1963 30.5949 44.2957 30.5949 48.1055C30.5949 51.9154 33.6943 55.0147 37.5041 55.0147C41.314 55.0147 44.4134 51.9154 44.4134 48.1055C44.4134 44.2957 41.3138 41.1963 37.5041 41.1963Z" fill="#C0272D"/>
<path d="M41.3416 60.7721C32.2406 60.7721 24.8362 53.3677 24.8362 44.2667C24.8362 40.6941 25.981 37.3857 27.9177 34.6813C23.7328 37.6782 20.9978 42.5768 20.9978 48.1052C20.9978 57.2062 28.4021 64.6105 37.5031 64.6105C43.0315 64.6105 47.9301 61.8756 50.927 57.6906C48.2226 59.6273 44.9142 60.7721 41.3416 60.7721Z" fill="#FF3A44"/>
<path d="M76.2057 8.41141L71.3093 10.8949L69.8104 11.3342C69.3517 11.5668 68.8412 11.1269 69.0036 10.6389L71.0109 4.89039C71.1397 4.50328 71.6191 4.36932 71.93 4.6334L72.6973 4.38275L76.3179 7.45889C76.6317 7.72566 76.5726 8.22543 76.2057 8.41141Z" fill="#F59500"/>
<path d="M70.8418 10.1412L72.7446 4.42327L71.7481 3.5767C71.4372 3.31261 70.9577 3.44657 70.829 3.83368L68.347 11.2928C68.1846 11.7808 68.695 12.2207 69.1539 11.9881L71.3092 10.8949C70.9781 10.8479 70.7196 10.5082 70.8418 10.1412Z" fill="#FFC502"/>
<path d="M58.5685 92.8792L58.0812 87.3927C58.0566 86.8787 58.6671 86.5931 59.046 86.9413L59.8424 87.0415L63.2875 90.2076L63.3554 91.3497C63.6623 91.6317 63.5771 92.1362 63.1948 92.3019L59.3726 93.3799C59.0032 93.54 58.5876 93.2813 58.5685 92.8792Z" fill="#F59500"/>
<path d="M63.2401 90.165L60.4052 91.3937C60.282 91.447 60.1436 91.3608 60.1371 91.2267L59.9419 87.1337L58.5931 85.8941C58.2142 85.546 57.6039 85.8315 57.6283 86.3455L57.9994 94.1266C58.0186 94.5287 58.4341 94.7876 58.8036 94.6276L64.3047 92.2433C64.687 92.0777 64.7722 91.5731 64.4653 91.2912L63.2401 90.165Z" fill="#FFC502"/>
<path d="M3.09583 87.5037L3.73973 86.7748L9.38207 83.4927C9.82676 83.234 10.3616 83.6441 10.2273 84.1408L8.45259 90.7002L7.85494 91.3377C7.74593 91.741 7.2571 91.8974 6.9341 91.6325L3.02002 88.4466C2.70968 88.1919 2.74864 87.7056 3.09583 87.5037Z" fill="#F59500"/>
<path d="M3.88024 86.9503C3.81883 86.9 3.77507 86.8391 3.74071 86.7747L2.42048 87.5427C2.07329 87.7446 2.03433 88.231 2.34486 88.4857L7.14658 92.4226C7.46958 92.6874 7.95841 92.531 8.06742 92.1278L8.45376 90.7001L3.88024 86.9503Z" fill="#FFC502"/>
<path d="M4.78279 1.1445L5.37756 1.62411L6.99298 5.96138L7.10947 7.00966C7.28892 7.49177 6.79453 7.94932 6.32777 7.73302L0.42326 4.96453C0.0509293 4.79199 -0.0266076 4.29645 0.275287 4.01854L3.85331 0.922057C4.15424 0.644921 4.64 0.761226 4.78279 1.1445Z" fill="#F59500"/>
<path d="M7.00327 5.98946L3.55807 4.39285C3.18574 4.22031 3.1082 3.72477 3.41009 3.44687L5.38057 1.63262L4.91247 0.375523C4.76967 -0.00774665 4.28392 -0.124244 3.98298 0.152893L-0.428173 4.21456C-0.730068 4.49246 -0.652531 4.98801 -0.280201 5.16054L6.87948 8.47851C7.34624 8.69481 7.84063 8.23707 7.66119 7.75515L7.00327 5.98946Z" fill="#FFC502"/>
</g>
<defs>
<clipPath id="clip0">
<rect width="94.6744" height="94.6744" fill="white" transform="translate(0.0697937 0.000488281)"/>
</clipPath>
</defs>
</svg>
